<?xml version="1.0" encoding="UTF-8" standalone="no"?>
<svg
   xmlns:dc="http://purl.org/dc/elements/1.1/"
   xmlns:cc="http://creativecommons.org/ns#"
   xmlns:rdf="http://www.w3.org/1999/02/22-rdf-syntax-ns#"
   xmlns:svg="http://www.w3.org/2000/svg"
   xmlns="http://www.w3.org/2000/svg"
   xmlns:sodipodi="http://sodipodi.sourceforge.net/DTD/sodipodi-0.dtd"
   xmlns:inkscape="http://www.inkscape.org/namespaces/inkscape"
   width="59.619438mm"
   height="59.619438mm"
   viewBox="0 0 59.619438 59.619438"
   version="1.1"
   id="svg8"
   inkscape:version="1.0.2-2 (e86c870879, 2021-01-15)"
   sodipodi:docname="load.svg">
  <defs
     id="defs2" />
  <sodipodi:namedview
     id="base"
     pagecolor="#ffffff"
     bordercolor="#666666"
     borderopacity="1.0"
     inkscape:pageopacity="0.0"
     inkscape:pageshadow="2"
     inkscape:zoom="5.6568542"
     inkscape:cx="135.28299"
     inkscape:cy="115.34769"
     inkscape:document-units="mm"
     inkscape:current-layer="layer1"
     inkscape:document-rotation="0"
     showgrid="false"
     inkscape:snap-page="true"
     fit-margin-top="0"
     fit-margin-left="0"
     fit-margin-right="0"
     fit-margin-bottom="0"
     showguides="true"
     inkscape:guide-bbox="true"
     inkscape:window-width="1920"
     inkscape:window-height="1001"
     inkscape:window-x="-9"
     inkscape:window-y="-9"
     inkscape:window-maximized="1"
     inkscape:snap-to-guides="true"
     inkscape:snap-global="false">
    <sodipodi:guide
       position="29.809499,69.619441"
       orientation="-1,0"
       id="guide24"
       inkscape:label=""
       inkscape:locked="false"
       inkscape:color="rgb(0,0,255)" />
    <sodipodi:guide
       position="-9.9999998,29.809721"
       orientation="0,1"
       id="guide26"
       inkscape:label=""
       inkscape:locked="false"
       inkscape:color="rgb(0,0,255)" />
    <sodipodi:guide
       position="-19.894461,69.619437"
       orientation="0,1"
       id="guide879"
       inkscape:label=""
       inkscape:locked="false"
       inkscape:color="rgb(0,0,255)" />
  </sodipodi:namedview>
  <metadata
     id="metadata5">
    <rdf:RDF>
      <cc:Work
         rdf:about="">
        <dc:format>image/svg+xml</dc:format>
        <dc:type
           rdf:resource="http://purl.org/dc/dcmitype/StillImage" />
        <dc:title />
      </cc:Work>
    </rdf:RDF>
  </metadata>
  <g
     inkscape:label="Layer 1"
     inkscape:groupmode="layer"
     id="layer1"
     transform="translate(0,-237.38055)">
    <ellipse
       style="fill:none;stroke:#ffcc33;stroke-width:4.34999;stroke-miterlimit:4;stroke-dasharray:none;stroke-opacity:1"
       id="path871"
       cx="29.809498"
       cy="266.46942"
       rx="2.4063713e-13"
       ry="0.72084588" />
    <circle
       style="fill:none;stroke:#ffcc33;stroke-width:4.3585;stroke-miterlimit:4;stroke-dasharray:none;stroke-opacity:1"
       id="path853"
       cx="29.809719"
       cy="267.19028"
       r="27.630468" />
    <g
       id="g855">
      <path
         id="path2771"
         style="fill:#336699;fill-opacity:1;stroke:none;stroke-width:0.264583px;stroke-linecap:butt;stroke-linejoin:miter;stroke-opacity:1"
         d="m 29.835387,254.00073 c -0.07674,0.004 -0.15463,0.0422 -0.235643,0.11627 l -8.096147,7.92045 c -0.519989,0.51983 -0.132153,1.60393 0.621151,1.60093 l 3.92224,0.01 c 0.54846,0.001 0.5817,0.0319 0.586012,0.58033 l 0.05064,7.23831 c -0.0097,0.4264 0.09511,0.60835 0.659907,0.61134 h 5.005896 c 0.564798,-0.003 0.669594,-0.18494 0.65991,-0.61134 l 0.05116,-7.23831 c 0.0043,-0.54845 0.03704,-0.57922 0.585496,-0.58033 l 3.922239,-0.01 c 0.753303,0.003 1.14114,-1.0811 0.621152,-1.60093 L 30.093253,254.117 c -0.08099,-0.074 -0.158411,-0.11196 -0.235127,-0.11627 -0.0072,0 -0.01491,-0.003 -0.02274,0 z" />
      <g
         id="g846">
        <circle
           style="fill:#ffffff;fill-opacity:1;stroke:none;stroke-width:2;stroke-linejoin:round;stroke-miterlimit:4;stroke-dasharray:none;stroke-opacity:0.638978"
           id="path2777"
           cx="36.099087"
           cy="277.26648"
           r="1.0252604" />
        <g
           id="g2786">
          <path
             id="rect2759"
             style="fill:#336699;fill-opacity:1;stroke:none;stroke-width:0.0377953;stroke-miterlimit:4;stroke-dasharray:none;stroke-opacity:1"
             d="M 67.417969 130.81055 C 64.277181 130.81055 61.748047 133.33968 61.748047 136.48047 L 61.748047 156.79102 C 61.748047 159.9318 64.277181 162.45898 67.417969 162.45898 L 158.33789 162.45898 C 161.47868 162.45898 164.00586 159.9318 164.00586 156.79102 L 164.00586 136.48047 C 164.00586 133.33968 161.47868 130.81055 158.33789 130.81055 L 132.20508 130.81055 C 131.50143 135.75042 127.48384 138.65668 122.28711 138.70117 L 103.32422 138.70117 C 98.127484 138.65665 94.11152 135.75042 93.408203 130.81055 L 67.417969 130.81055 z M 101.58398 130.81055 C 101.96494 131.02937 102.52414 131.13628 103.3457 131.14062 L 122.26562 131.14062 C 123.08719 131.13627 123.64638 131.02937 124.02734 130.81055 L 101.58398 130.81055 z "
             transform="matrix(0.26458333,0,0,0.26458333,0,237.38055)" />
          <circle
             style="fill:#ffffff;fill-opacity:1;stroke:none;stroke-width:2;stroke-linejoin:round;stroke-miterlimit:4;stroke-dasharray:none;stroke-opacity:0.638978"
             id="circle2779"
             cx="36.066013"
             cy="277.26648"
             r="1.0252604" />
          <circle
             style="fill:#ffffff;fill-opacity:1;stroke:none;stroke-width:2;stroke-linejoin:round;stroke-miterlimit:4;stroke-dasharray:none;stroke-opacity:0.638978"
             id="circle2781"
             cx="40.233204"
             cy="277.26648"
             r="1.0252604" />
        </g>
      </g>
    </g>
  </g>
</svg>
