<?xml version="1.0" encoding="UTF-8" standalone="no"?>
<svg
   xmlns:dc="http://purl.org/dc/elements/1.1/"
   xmlns:cc="http://creativecommons.org/ns#"
   xmlns:rdf="http://www.w3.org/1999/02/22-rdf-syntax-ns#"
   xmlns:svg="http://www.w3.org/2000/svg"
   xmlns="http://www.w3.org/2000/svg"
   xmlns:sodipodi="http://sodipodi.sourceforge.net/DTD/sodipodi-0.dtd"
   xmlns:inkscape="http://www.inkscape.org/namespaces/inkscape"
   width="59.619438mm"
   height="59.619438mm"
   viewBox="0 0 59.619438 59.619438"
   version="1.1"
   id="svg8"
   inkscape:version="1.0.2-2 (e86c870879, 2021-01-15)"
   sodipodi:docname="play.svg">
  <defs
     id="defs2" />
  <sodipodi:namedview
     id="base"
     pagecolor="#ffffff"
     bordercolor="#666666"
     borderopacity="1.0"
     inkscape:pageopacity="0.0"
     inkscape:pageshadow="2"
     inkscape:zoom="5.6568542"
     inkscape:cx="151.46757"
     inkscape:cy="133.52826"
     inkscape:document-units="mm"
     inkscape:current-layer="layer1"
     inkscape:document-rotation="0"
     showgrid="false"
     inkscape:snap-page="true"
     fit-margin-top="0"
     fit-margin-left="0"
     fit-margin-right="0"
     fit-margin-bottom="0"
     showguides="true"
     inkscape:guide-bbox="true"
     inkscape:window-width="1920"
     inkscape:window-height="1001"
     inkscape:window-x="-9"
     inkscape:window-y="-9"
     inkscape:window-maximized="1"
     inkscape:snap-to-guides="true"
     inkscape:snap-global="false">
    <sodipodi:guide
       position="29.809499,69.619441"
       orientation="-1,0"
       id="guide24"
       inkscape:label=""
       inkscape:locked="false"
       inkscape:color="rgb(0,0,255)" />
    <sodipodi:guide
       position="-9.9999998,29.809721"
       orientation="0,1"
       id="guide26"
       inkscape:label=""
       inkscape:locked="false"
       inkscape:color="rgb(0,0,255)" />
    <sodipodi:guide
       position="-19.894461,69.619437"
       orientation="0,1"
       id="guide879"
       inkscape:label=""
       inkscape:locked="false"
       inkscape:color="rgb(0,0,255)" />
  </sodipodi:namedview>
  <metadata
     id="metadata5">
    <rdf:RDF>
      <cc:Work
         rdf:about="">
        <dc:format>image/svg+xml</dc:format>
        <dc:type
           rdf:resource="http://purl.org/dc/dcmitype/StillImage" />
        <dc:title />
      </cc:Work>
    </rdf:RDF>
  </metadata>
  <g
     inkscape:label="Layer 1"
     inkscape:groupmode="layer"
     id="layer1"
     transform="translate(0,-237.38055)">
    <circle
       style="fill:none;stroke:#ffcc33;stroke-width:4.3585;stroke-miterlimit:4;stroke-dasharray:none;stroke-opacity:1"
       id="path853"
       cx="29.809719"
       cy="267.19028"
       r="27.630468" />
    <g
       id="g843">
      <path
         id="path3446"
         style="fill:#336699;fill-opacity:1;stroke:none;stroke-width:7.55906;stroke-linejoin:round;stroke-miterlimit:4;stroke-dasharray:none;stroke-opacity:0.638978"
         d="M 87 84 L 87 84.015625 A 30.23622 30.23622 0 0 0 57.013672 114.25 A 30.23622 30.23622 0 0 0 87.25 144.48633 A 30.23622 30.23622 0 0 0 107.26367 136.91406 L 123.36133 136.91406 A 30.23622 30.23622 0 0 0 143.375 144.48633 A 30.23622 30.23622 0 0 0 173.61133 114.25 A 30.23622 30.23622 0 0 0 144.125 84.023438 L 144.125 84 L 87 84 z "
         transform="matrix(0.26458333,0,0,0.26458333,0,237.38055)" />
      <path
         id="rect3454"
         style="fill:#ffffff;fill-opacity:1;stroke:none;stroke-width:7.55906;stroke-linejoin:round;stroke-miterlimit:4;stroke-dasharray:none;stroke-opacity:0.638978"
         d="M 83.765625 94.375 C 82.718696 94.375 81.875 95.218696 81.875 96.265625 L 81.875 108.25586 L 69.904297 108.25586 C 68.895288 108.25586 68.082031 109.18289 68.082031 110.33398 L 68.082031 118.27344 C 68.082031 119.42454 68.895288 120.35156 69.904297 120.35156 L 81.875 120.35156 L 81.875 132.48438 C 81.875 133.5313 82.718696 134.375 83.765625 134.375 L 90.984375 134.375 C 92.031304 134.375 92.875 133.5313 92.875 132.48438 L 92.875 120.35156 L 104.8125 120.35156 C 105.82151 120.35156 106.63281 119.42454 106.63281 118.27344 L 106.63281 110.33398 C 106.63281 109.18289 105.82151 108.25586 104.8125 108.25586 L 92.875 108.25586 L 92.875 96.265625 C 92.875 95.218696 92.031304 94.375 90.984375 94.375 L 83.765625 94.375 z "
         transform="matrix(0.26458333,0,0,0.26458333,0,237.38055)" />
      <ellipse
         style="fill:#ffffff;fill-opacity:1;stroke:none;stroke-width:2;stroke-linejoin:round;stroke-miterlimit:4;stroke-dasharray:none;stroke-opacity:0.638978"
         id="path3459"
         cx="35.68716"
         cy="269.70007"
         rx="2.25"
         ry="2.1047475" />
      <ellipse
         style="fill:#ffffff;fill-opacity:1;stroke:none;stroke-width:2;stroke-linejoin:round;stroke-miterlimit:4;stroke-dasharray:none;stroke-opacity:0.638978"
         id="ellipse3461"
         cx="39.849884"
         cy="265.56073"
         rx="2.25"
         ry="2.1047475" />
    </g>
  </g>
</svg>
