<?xml version="1.0" encoding="UTF-8" standalone="no"?>
<svg
   xmlns:dc="http://purl.org/dc/elements/1.1/"
   xmlns:cc="http://creativecommons.org/ns#"
   xmlns:rdf="http://www.w3.org/1999/02/22-rdf-syntax-ns#"
   xmlns:svg="http://www.w3.org/2000/svg"
   xmlns="http://www.w3.org/2000/svg"
   xmlns:sodipodi="http://sodipodi.sourceforge.net/DTD/sodipodi-0.dtd"
   xmlns:inkscape="http://www.inkscape.org/namespaces/inkscape"
   id="svg8"
   version="1.1"
   viewBox="0 0 59.619438 59.619438"
   height="59.619438mm"
   width="59.619438mm"
   sodipodi:docname="deploy.svg"
   inkscape:version="0.92.5 (2060ec1f9f, 2020-04-08)">
  <sodipodi:namedview
     pagecolor="#ffffff"
     bordercolor="#666666"
     borderopacity="1"
     objecttolerance="10"
     gridtolerance="10"
     guidetolerance="10"
     inkscape:pageopacity="0"
     inkscape:pageshadow="2"
     inkscape:window-width="2435"
     inkscape:window-height="1636"
     id="namedview21"
     showgrid="false"
     inkscape:zoom="5.9246349"
     inkscape:cx="112.66665"
     inkscape:cy="105.02824"
     inkscape:window-x="1175"
     inkscape:window-y="485"
     inkscape:window-maximized="0"
     inkscape:current-layer="Group-2" />
  <defs
     id="defs2" />
  <metadata
     id="metadata5">
    <rdf:RDF>
      <cc:Work
         rdf:about="">
        <dc:format>image/svg+xml</dc:format>
        <dc:type
           rdf:resource="http://purl.org/dc/dcmitype/StillImage" />
        <dc:title />
      </cc:Work>
    </rdf:RDF>
  </metadata>
  <g
     transform="translate(0,-237.38055)"
     id="layer1">
    <circle
       r="27.630468"
       cy="267.19028"
       cx="29.809719"
       id="path853"
       style="fill:#ffffff;stroke:#ffcc33;stroke-width:4.3585;stroke-miterlimit:4;stroke-dasharray:none;stroke-opacity:1" />
    <g
       transform="matrix(0.30122152,0,0,0.34860812,8.2925535,250.66005)"
       style="fill:#336699;fill-rule:evenodd;stroke:none;stroke-width:1;fill-opacity:0.94117647"
       id="Group-2">
      <g
         style="fill:#336699;fill-opacity:0.94117647"
         transform="matrix(1.7071215,0.0998953,-0.11937356,1.4285694,27.381697,-16.452422)"
         id="Group">
        <path
           style="fill:#336699;fill-opacity:0.94117647"
           id="Fill-7"
           d="m 2.1989,68.0674 c -0.471,-1.393 -0.765,-2.745 -1.022,-4.106 -0.974,-5.161 -0.784,-10.264 0.877,-15.263 2.605,-7.842 7.575,-13.769 14.702,-17.906 3.523,-2.045 7.294,-3.484 11.258,-4.55 0.26,0.286 0.183,0.656 0.246,0.979 0.116,0.596 0.183,1.202 0.311,1.795 0.093,0.439 -0.065,0.599 -0.483,0.728 -2.629,0.815 -5.178,1.835 -7.614,3.125 -6.446,3.413 -11.249,8.36 -14.08,15.134 -1.894,4.534 -2.505,9.241 -1.886,14.116 0.168,1.323 0.397,2.632 0.731,3.921 0.108,0.42 0.051,0.682 -0.404,0.862 -0.858,0.34 -1.692,0.743 -2.636,1.165"
           inkscape:connector-curvature="0" />
        <path
           style="fill:#336699;fill-opacity:0.94117647"
           id="Fill-9"
           d="m 16.6876,76.8247 c -0.039,-1.014 -0.058,-1.939 -0.118,-2.862 -0.028,-0.436 0.137,-0.583 0.554,-0.681 2.57,-0.605 5.07,-1.43 7.41,-2.667 8.528,-4.509 13.751,-11.482 15.529,-20.986 0.71,-3.798 0.594,-7.609 0.044,-11.416 -0.033,-0.23 -0.067,-0.459 -0.086,-0.69 -0.034,-0.397 -0.352,-0.865 -0.081,-1.162 0.241,-0.264 0.728,-0.306 1.112,-0.434 0.656,-0.219 1.315,-0.428 2.023,-0.657 0.392,1.341 0.576,2.684 0.75,4.022 0.366,2.82 0.484,5.648 0.256,8.494 -0.521,6.517 -2.835,12.306 -6.929,17.389 -4.383,5.441 -10.055,8.892 -16.728,10.786 -1.192,0.338 -2.398,0.624 -3.736,0.864"
           inkscape:connector-curvature="0" />
        <path
           style="fill:#336699;fill-opacity:0.94117647"
           id="Fill-11"
           d="m 41.896193,17.684471 c 0.300958,-0.01072 0.437594,-0.185754 0.600129,-0.300957 3.876725,-2.717548 7.939204,-5.150213 11.904341,-7.7302308 0.248268,-0.1616419 0.460813,-0.2679147 0.774273,-0.09377 0.924306,0.5152888 1.869152,0.9921768 2.868473,1.5163968 -0.214332,0.249161 -0.465278,0.355433 -0.689434,0.491177 -5.03233,3.070302 -10.061981,6.14239 -15.101455,9.200189 -0.435808,0.265235 -0.749268,0.587626 -0.994857,1.035936 -1.728049,3.149784 -3.476639,6.287957 -5.220763,9.42881 -0.311674,0.560835 -0.317925,0.561728 -0.854648,0.284883 -0.573337,-0.296493 -1.144888,-0.59745 -1.715547,-0.901087 -0.560834,-0.298278 -0.564406,-0.302743 -0.266128,-0.842145 1.101129,-1.989713 2.204937,-3.977639 3.307853,-5.967352 0.663535,-1.198472 1.31814,-2.401408 1.996857,-3.591842 0.19915,-0.349183 0.288455,-0.693899 0.284882,-1.097557 -0.05001,-5.769096 -0.08841,-11.5390841 -0.128598,-17.3090726 -0.0018,-0.2536259 0,-0.5072517 0,-0.82517711 0.841251,0.31524621 1.528899,0.84750331 2.316568,1.13327901 0.928771,0.3366794 1.147568,0.9198402 1.127921,1.8682581 -0.07769,3.7508051 -0.05805,7.5042896 -0.0893,11.2559876 -0.0063,0.800171 -0.0768,1.600343 -0.120562,2.444274"
           inkscape:connector-curvature="0" />
        <path
           style="fill:#336699;fill-opacity:0.94117647"
           id="path46"
           d="m 22.409518,43.588393 c -0.044,1.396 -1.537,3.353 -2.873,3.728 -1.002,0.28 -1.896,0.043 -2.634,-0.69 -0.704,-0.698 -0.886,-1.559 -0.586,-2.48 0.388,-1.192 1.114,-2.163 2.205,-2.802 0.864,-0.505 1.77,-0.491 2.638,0.028 0.832,0.497 1.303,1.213 1.25,2.216"
           inkscape:connector-curvature="0" />
        <path
           style="fill:#336699;fill-opacity:0.94117647"
           id="path48"
           d="m 33.014283,49.472893 c -0.022,1.434 -1.527,3.419 -2.908,3.791 -0.967,0.26 -1.837,0.031 -2.568,-0.66 -0.706,-0.667 -0.873,-1.519 -0.608,-2.396 0.38,-1.257 1.142,-2.288 2.3,-2.936 1.703,-0.952 3.814,0.296 3.784,2.201"
           inkscape:connector-curvature="0" />
      </g>
    </g>
  </g>
</svg>
