<?xml version="1.0" encoding="UTF-8" standalone="no"?>
<svg
   xmlns:svg="http://www.w3.org/2000/svg"
   xmlns="http://www.w3.org/2000/svg"
   version="1.1"
   id="svg2"
   width="341"
   height="341"
   viewBox="0 0 341 341"
>
  <g
     id="g10">
    <ellipse
       style="fill:#ffffff;stroke:none;fill-opacity:1"
       id="path131105-3"
       cx="170.5"
       cy="170.5"
       rx="157"
       ry="157" />
    <path
       id="path131956"
       style="fill:#c93827;fill-opacity:1;stroke:none"
       d="m 180.96875,88.828125 c -19.69772,-0.09108 -42.46564,0.648746 -65.125,2.693359 -22.759796,1.963109 -47.059416,22.495056 -47.328125,45.019536 l 0.466797,149.76367 c 25.544412,17.94294 47.515938,27.75821 89.248048,34.44726 l -0.91016,-149.25781 122.36133,-0.0176 0.0723,-42.27148 C 279.65325,114.94819 272.61422,105.57673 256.94727,97.929688 249.64534,94.974631 240.24168,92.169544 219.86328,90.324219 209.753,89.472613 196.2892,88.898963 180.96875,88.828125 Z m 60.66992,22.966795 c 0.0456,-1.5e-4 0.0911,-1.5e-4 0.13672,0 11.5882,-1.2e-4 20.98237,9.30136 20.98242,20.77539 -5e-5,11.47403 -9.39422,20.77551 -20.98242,20.77539 -11.58744,-9.4e-4 -20.98042,-9.30211 -20.98047,-20.77539 -2e-4,-11.42062 9.30974,-20.70003 20.84375,-20.77539 z"
       />
    <ellipse
       style="fill:none;stroke:#000000;stroke-width:22;stroke-opacity:1"
       id="path131105"
       cx="170.5"
       cy="170.5"
       rx="157"
       ry="157" />
  </g>
</svg>
