<?xml version="1.0" encoding="UTF-8" standalone="no"?>
<!-- Created with Inkscape (http://www.inkscape.org/) -->

<svg
   width="16"
   height="16"
   viewBox="0 0 4.2333333 4.2333334"
   version="1.1"
   id="svg5"
   xmlns="http://www.w3.org/2000/svg"
   xmlns:svg="http://www.w3.org/2000/svg">
  <g>
    <path
       style="fill:#ffffff;stroke-width:0.380998"
       d="M 4.0216665,2.1166666 A 1.9049999,1.9049999 0 0 1 2.1166664,4.0216665 1.9049999,1.9049999 0 0 1 0.21166669,2.1166666 1.9049999,1.9049999 0 0 1 2.1166664,0.21166669 1.9049999,1.9049999 0 0 1 4.0216665,2.1166666 Z"
       id="path4663" />
    <path
       id="path4701"
       style="opacity:1;fill:#000000;fill-opacity:1;stroke-width:1.23442"
       d="M 8,0 A 8.0000004,8.0000004 0 0 0 0,8 8.0000004,8.0000004 0 0 0 8,16 8.0000004,8.0000004 0 0 0 16,8 8.0000004,8.0000004 0 0 0 8,0 Z M 8,1 A 6.9999999,6.9999999 0 0 1 15,8 6.9999999,6.9999999 0 0 1 8,15 6.9999999,6.9999999 0 0 1 1,8 6.9999999,6.9999999 0 0 1 8,1 Z"
       transform="scale(0.26458333)" />
    <path
       style="fill:#ffffff;stroke-width:0.380998"
       d="M 4.0216666,2.1166667 A 1.9049999,1.9049999 0 0 1 2.1166665,4.0216666 1.9049999,1.9049999 0 0 1 0.21166677,2.1166667 1.9049999,1.9049999 0 0 1 2.1166665,0.21166678 1.9049999,1.9049999 0 0 1 4.0216666,2.1166667 Z"
       id="path4663-6" />
    <path
       id="path4701-1-2-0"
       style="fill:#000000;fill-opacity:1;stroke-width:1.74573"
       d="m 9.0332031,0.875 a 6.9999998,14 0 0 1 0.8125,4.1835938 A 16.000001,8.0000001 0 0 0 8,5 16.000001,8.0000001 0 0 0 6.1582031,5.0585938 6.9999998,14 0 0 1 6.9667969,0.87695312 7.1999999,7.1999999 0 0 0 5.7597656,1.1601562 8.0000001,16.000001 0 0 0 5.1308594,5.1347656 16.000001,8.0000001 0 0 0 1.15625,5.7714844 7.1999999,7.1999999 0 0 0 0.875,6.9824219 14,6.9999998 0 0 1 5.0566406,6.1621094 8.0000001,16.000001 0 0 0 5,7.9550781 8.0000001,16.000001 0 0 0 5.0605469,9.8378906 14,6.9999998 0 0 1 0.875,9.0175781 7.1999999,7.1999999 0 0 0 1.15625,10.228516 16.000001,8.0000001 0 0 0 5.1386719,10.865234 8.0000001,16.000001 0 0 0 5.7832031,14.847656 7.1999999,7.1999999 0 0 0 6.9960938,15.126953 6.9999998,14 0 0 1 6.1679688,10.941406 16.000001,8.0000001 0 0 0 8,11 16.000001,8.0000001 0 0 0 9.8398438,10.941406 6.9999998,14 0 0 1 9.0175781,15.125 7.1999999,7.1999999 0 0 0 10.222656,14.845703 8.0000001,16.000001 0 0 0 10.861328,10.865234 16.000001,8.0000001 0 0 0 14.84375,10.228516 7.1999999,7.1999999 0 0 0 15.125,9.0253906 14,6.9999998 0 0 1 10.939453,9.84375 8.0000001,16.000001 0 0 0 11,7.9726562 8.0000001,16.000001 0 0 0 10.943359,6.15625 14,6.9999998 0 0 1 15.125,6.9746094 7.1999999,7.1999999 0 0 0 14.845703,5.7714844 16.000001,8.0000001 0 0 0 10.867188,5.1347656 8.0000001,16.000001 0 0 0 10.234375,1.15625 7.1999999,7.1999999 0 0 0 9.0332031,0.875 Z M 8,6 A 14,6.9999998 0 0 1 9.9355469,6.0664062 6.9999998,14 0 0 1 10,7.9726562 6.9999998,14 0 0 1 9.9316406,9.9335938 14,6.9999998 0 0 1 8,10 14,6.9999998 0 0 1 6.0742188,9.9277344 6.9999998,14 0 0 1 6,7.9550781 6.9999998,14 0 0 1 6.0683594,6.0722656 14,6.9999998 0 0 1 8,6 Z"
       transform="scale(0.26458333)" />
  </g>
</svg>
