<?xml version="1.0" encoding="UTF-8"?>
<svg xmlns="http://www.w3.org/2000/svg" xmlns:xlink="http://www.w3.org/1999/xlink" width="360pt" height="360pt" viewBox="0 0 360 360" version="1.1">
<g id="surface41">
<path style=" stroke:none;fill-rule:nonzero;fill:rgb(50%,50%,50%);fill-opacity:1;" d="M 142.722656 360 L 217.277344 360 C 208.742188 304.476562 247.691406 288.34375 283.324219 332.03125 L 333.640625 280.917969 C 288.34375 247.691406 304.476562 208.742188 360.566406 214.441406 L 360 142.722656 C 304.476562 151.257812 288.34375 112.308594 332.03125 76.675781 L 280.917969 26.359375 C 247.691406 71.65625 208.742188 55.523438 214.441406 -0.566406 L 142.722656 0 C 151.257812 55.523438 112.308594 71.65625 76.675781 27.96875 L 26.359375 79.082031 C 71.65625 112.308594 55.523438 151.257812 -0.566406 145.558594 L 0 217.277344 C 55.523438 208.742188 71.65625 247.691406 27.96875 283.324219 L 79.082031 333.640625 C 112.308594 288.34375 151.257812 304.476562 145.558594 360.566406 Z M 180 243 L 243 180 C 243 214.792969 214.792969 243 180 243 C 145.207031 243 117 214.792969 117 180 C 117 145.207031 145.207031 117 180 117 C 214.792969 117 243 145.207031 243 180 Z M 180 243 "/>
</g>
</svg>
