<?xml version="1.0" encoding="UTF-8" standalone="no"?>
<svg
   xmlns:dc="http://purl.org/dc/elements/1.1/"
   xmlns:cc="http://creativecommons.org/ns#"
   xmlns:rdf="http://www.w3.org/1999/02/22-rdf-syntax-ns#"
   xmlns:svg="http://www.w3.org/2000/svg"
   xmlns="http://www.w3.org/2000/svg"
   xmlns:sodipodi="http://sodipodi.sourceforge.net/DTD/sodipodi-0.dtd"
   xmlns:inkscape="http://www.inkscape.org/namespaces/inkscape"
   inkscape:version="1.0 (4035a4f, 2020-05-01)"
   width="59.619438mm"
   height="59.619438mm"
   sodipodi:docname="package.svg"
   id="svg866"
   version="1.1"
   viewBox="0 0 225.33331 225.33331">
  <metadata
     id="metadata872">
    <rdf:RDF>
      <cc:Work
         rdf:about="">
        <dc:format>image/svg+xml</dc:format>
        <dc:type
           rdf:resource="http://purl.org/dc/dcmitype/StillImage" />
        <dc:title></dc:title>
      </cc:Work>
    </rdf:RDF>
  </metadata>
  <defs
     id="defs870" />
  <sodipodi:namedview
     inkscape:current-layer="svg866"
     inkscape:window-maximized="0"
     inkscape:window-y="0"
     inkscape:window-x="0"
     inkscape:cy="657.41332"
     inkscape:cx="181.7813"
     inkscape:zoom="0.25336563"
     units="mm"
     showgrid="false"
     id="namedview868"
     inkscape:window-height="751"
     inkscape:window-width="1579"
     inkscape:pageshadow="2"
     inkscape:pageopacity="0"
     guidetolerance="10"
     gridtolerance="10"
     objecttolerance="10"
     borderopacity="1"
     bordercolor="#666666"
     pagecolor="#ffffff"
     inkscape:document-rotation="0"
     scale-x="1" />
  <!--!Font Awesome Free 6.5.1 by @fontawesome - https://fontawesome.com License - https://fontawesome.com/license/free Copyright 2024 Fonticons, Inc.-->
  <g
     inkscape:export-ydpi="72.000008"
     inkscape:export-xdpi="72.000008"
     id="g1476"
     transform="translate(-161.04446,-55.379391)">
    <circle
       r="104.43011"
       cx="273.06006"
       cy="167.2977"
       id="path853"
       style="fill:#ffffff;stroke:#ffcc33;stroke-width:16.4731;stroke-miterlimit:4;stroke-dasharray:none;stroke-opacity:1" />
    <path
       d="m 231.43509,117.10146 h 87.79138 c 3.46854,0 6.27081,3.2026 6.27081,7.16665 v 7.16664 c 0,3.96405 -2.80227,7.16664 -6.27081,7.16664 h -87.79138 c -3.46854,0 -6.27081,-3.20259 -6.27081,-7.16664 v -7.16664 c 0,-3.96405 2.80227,-7.16665 6.27081,-7.16665 z m 0,28.66657 h 87.79138 v 57.33314 c 0,7.9057 -5.62413,14.33329 -12.54163,14.33329 h -62.70813 c -6.91749,0 -12.54162,-6.42759 -12.54162,-14.33329 z m 25.08324,17.91661 c 0,1.97083 1.41094,3.58332 3.13541,3.58332 h 31.35407 c 1.72447,0 3.13541,-1.61249 3.13541,-3.58332 0,-1.97082 -1.41094,-3.58332 -3.13541,-3.58332 h -31.35407 c -1.72447,0 -3.13541,1.6125 -3.13541,3.58332 z"
       id="path864"
       style="opacity:0.96;fill:#336699;fill-opacity:1;stroke-width:0.209493" />
  </g>
</svg>
