<?xml version="1.0" encoding="UTF-8" standalone="no"?>
<svg
   xmlns:dc="http://purl.org/dc/elements/1.1/"
   xmlns:cc="http://creativecommons.org/ns#"
   xmlns:rdf="http://www.w3.org/1999/02/22-rdf-syntax-ns#"
   xmlns:svg="http://www.w3.org/2000/svg"
   xmlns="http://www.w3.org/2000/svg"
   xmlns:xlink="http://www.w3.org/1999/xlink"
   xmlns:sodipodi="http://sodipodi.sourceforge.net/DTD/sodipodi-0.dtd"
   xmlns:inkscape="http://www.inkscape.org/namespaces/inkscape"
   width="320"
   height="240"
   version="1.1"
   id="svg23"
   sodipodi:docname="snek.svg"
   inkscape:version="0.92.4 (5da689c313, 2019-01-14)">
  <metadata
     id="metadata27">
    <rdf:RDF>
      <cc:Work
         rdf:about="">
        <dc:format>image/svg+xml</dc:format>
        <dc:type
           rdf:resource="http://purl.org/dc/dcmitype/StillImage" />
        <dc:title></dc:title>
      </cc:Work>
    </rdf:RDF>
  </metadata>
  <sodipodi:namedview
     pagecolor="#000000"
     bordercolor="#666666"
     borderopacity="1"
     objecttolerance="10"
     gridtolerance="10"
     guidetolerance="10"
     inkscape:pageopacity="0"
     inkscape:pageshadow="2"
     inkscape:window-width="2264"
     inkscape:window-height="1422"
     id="namedview25"
     showgrid="false"
     fit-margin-left="-0.2"
     fit-margin-top="0"
     fit-margin-right="0"
     fit-margin-bottom="0"
     inkscape:zoom="6.402378"
     inkscape:cx="78.949438"
     inkscape:cy="192.4743"
     inkscape:window-x="177"
     inkscape:window-y="186"
     inkscape:window-maximized="0"
     inkscape:current-layer="svg23"
     inkscape:pagecheckerboard="true" />
  <defs
     id="defs9">
    <linearGradient
       id="linearGradient859"
       inkscape:collect="always">
      <stop
         id="stop863"
         offset="0"
         style="stop-color:#fffcfc;stop-opacity:1;" />
      <stop
         id="stop865"
         offset="1"
         style="stop-color:#fffcfc;stop-opacity:0;" />
    </linearGradient>
    <inkscape:path-effect
       effect="spiro"
       id="path-effect833"
       is_visible="true" />
    <filter
       id="filter5883">
      <feGaussianBlur
         id="feGaussianBlur5885"
         stdDeviation="0.794398" />
    </filter>
    <linearGradient
       id="linearGradient3378">
      <stop
         id="stop3380"
         stop-color="#d4ff2a"
         offset="0" />
      <stop
         id="stop3382"
         stop-color="#95d030"
         offset="1" />
    </linearGradient>
    <linearGradient
       id="linearGradient5606"
       y2="194.1785"
       xlink:href="#linearGradient3378"
       x2="164.22122"
       y1="194.1785"
       x1="25.290228"
       gradientTransform="scale(1.2091945,0.82699681)"
       gradientUnits="userSpaceOnUse" />
    <linearGradient
       id="linearGradient3554"
       y2="448.44028"
       xlink:href="#linearGradient3378"
       x2="229.6731"
       y1="552.78082"
       x1="78.971382"
       gradientTransform="scale(1.4458392,0.69163986)"
       gradientUnits="userSpaceOnUse" />
    <radialGradient
       inkscape:collect="always"
       xlink:href="#linearGradient859"
       id="radialGradient861"
       cx="58.045792"
       cy="49.90126"
       fx="58.045792"
       fy="49.90126"
       r="48.330189"
       gradientTransform="matrix(1.2472303,0,0,1.119373,-11.773509,-1.5053963)"
       gradientUnits="userSpaceOnUse" />
  </defs>
  <ellipse
     style="opacity:1;fill:url(#radialGradient861);fill-opacity:1;fill-rule:nonzero;stroke:none;stroke-width:0.33280307;stroke-linecap:butt;stroke-linejoin:round;stroke-miterlimit:4;stroke-dasharray:none;stroke-dashoffset:0;stroke-opacity:1"
     id="path853"
     cx="60.622959"
     cy="54.35273"
     rx="60.278873"
     ry="54.09951" />
  <path
     style="fill:#fffcfc;fill-opacity:1;fill-rule:evenodd;stroke:none;stroke-width:1px;stroke-linecap:butt;stroke-linejoin:miter;stroke-opacity:1"
     inkscape:path-effect="#path-effect833"
     inkscape:original-d="m 67.610114,27.118104 c 6.713205,-1.089497 8.709332,-0.361032 13.259767,-0.254718 4.550435,0.106314 9.302107,3.237565 12.405346,5.850565 3.103239,2.613 4.240933,4.749872 3.165418,9.442321 -1.075515,4.692449 -6.019053,9.26703 -12.527459,10.822605 -6.508406,1.555575 -15.084437,0.339769 -22.813692,1.538529 -7.729255,1.19876 -13.779737,2.571384 -20.780772,1.862309 -7.001035,-0.709074 -16.525526,-3.458309 -16.200875,-10.424977 0.324651,-6.966668 4.281697,-8.757588 7.214428,-11.552389 2.932731,-2.7948 3.067091,-2.720633 5.006737,-3.356366 1.939646,-0.635733 8.017723,-2.865079 9.918328,-3.259811 1.900604,-0.394732 14.63957,0.42143 21.352774,-0.668068 z"
     id="path831"
     d="m 67.610114,27.118104 c 4.422943,-0.17586 8.861694,-0.755028 13.259767,-0.254718 4.64425,0.528314 9.27997,2.374907 12.405346,5.850565 1.147019,1.275573 2.07646,2.756788 2.647963,4.374231 0.571504,1.617443 0.778626,3.372647 0.517455,5.06809 -0.446091,2.89589 -2.244569,5.472968 -4.560521,7.267834 -2.315951,1.794867 -5.118198,2.869311 -7.966938,3.554771 -7.424619,1.786501 -15.192208,1.059435 -22.813692,1.538529 -6.944677,0.436549 -13.822415,1.881863 -20.780772,1.862309 -3.550015,-0.01 -7.197957,-0.432893 -10.332155,-2.100078 -1.567099,-0.833592 -2.982954,-1.976361 -4.036993,-3.404534 -1.054039,-1.428173 -1.735453,-3.147963 -1.831727,-4.920365 -0.12825,-2.36108 0.7814,-4.692685 2.154897,-6.617433 1.373497,-1.924747 3.189463,-3.487892 5.059531,-4.934956 1.590774,-1.230945 3.239411,-2.395976 5.006737,-3.356366 3.072277,-1.66952 6.467244,-2.697492 9.918328,-3.259811 7.036111,-1.146463 14.229501,-0.384841 21.352774,-0.668068 z"
     inkscape:connector-curvature="0"
     sodipodi:nodetypes="sssssssssszs" />
  <g
     id="g3550"
     transform="matrix(0.51372076,0,0,0.51372076,-1.6205171,-7.7442559)">
    <path
       id="path3425"
       d="m 83.431,203.6 0.8786,29.001 -7.0287,28.326 -28.115,53.955 -9.6645,37.094 2.6358,29.675 20.208,32.373 35.143,28.326 50.079,14.163 50.08,-1.3489 51.837,-17.535 43.929,-24.954 28.993,-11.466 40.415,2.6977 30.751,15.512 39.536,26.303 30.75,12.14 31.629,0.6744 36.022,-22.256 21.086,-21.582 19.329,-39.792 6.1501,-32.373 -25.479,34.396 -26.358,20.908 -27.236,4.0467 -43.929,-12.814 -28.115,-22.931 -29.872,-22.931 -36.901,-12.814 -36.901,-2.6978 -27.236,5.3955 -28.993,12.14 -58.865,26.303 -31.629,7.4188 -28.993,-10.116 -9.6644,-27.652 15.815,-50.583 9.6645,-35.071 -0.8786,-31.699 -1.7572,-12.14 -6.1501,-10.791 -41.294,4.0466 -29.872,-1.3489 z"
       style="fill:#a0d82f;fill-rule:evenodd;fill-opacity:1"
       inkscape:connector-curvature="0" />
  </g>
  <circle
     id="svg_3"
     cy="-332.10938"
     cx="-510.00516"
     r="0"
     style="stroke-width:0.48228028" />
  <path
     style="stroke-width:0.51372075"
     id="path3429"
     d="m 79.603872,95.08209 c -10.251812,0.903892 -20.691131,3.079756 -32.638221,2.706795 9.839807,0.901014 22.049922,-2.211414 29.252801,-1.169332 12.713561,12.914427 -15.928426,8.793867 -16.587016,20.723497 -8.533929,13.03412 21.61737,12.25994 14.104717,22.95407 -10.357638,-1.28954 -24.753121,6.59001 -21.664632,17.15057 0.0051,11.27411 19.261447,6.10403 17.715147,17.06375 -8.641811,5.61753 -13.560173,20.81185 3.751857,25.33568 7.57173,2.34554 18.98866,3.16462 21.77765,-4.54746 -2.836149,-7.28148 12.152065,-17.92269 16.051205,-8.98652 12.74182,9.2778 36.09402,-0.40738 33.76635,-13.46924 -9.90813,-8.32587 2.17484,-8.86579 11.53766,-9.89632 -2.57102,12.61133 20.56013,19.61694 30.94551,10.45936 2.17278,-9.53261 11.13952,-6.21808 18.13845,-1.08272 -12.56099,7.96267 -3.64963,25.10861 12.86357,23.84178 7.61899,-5.49681 24.92573,-3.55628 19.21059,6.38812 3.99993,13.75693 34.46758,10.07766 33.3153,-3.57303 0.62433,-8.53804 16.82538,-15.15734 20.33872,-25.40093 -2.42214,10.58111 -8.74456,20.60945 -15.93819,29.77526 -8.83137,9.71138 -22.32938,19.88459 -39.07,18.25455 -17.51685,-4.45257 -28.91632,-17.08019 -44.31664,-24.42639 -4.46593,-6.11328 -40.09025,-7.5666 -19.7464,-5.04551 23.78271,4.29013 39.92741,19.71044 58.79021,30.44617 -14.42117,-5.19063 -25.29048,-14.60045 -38.25165,-21.37284 -11.86079,-7.37497 -28.49455,-8.67263 -41.5523,-2.25204 -17.70025,8.64643 -33.18688,21.60298 -55.034908,23.79862 -3.572311,0.37651 -7.176679,0.45512 -10.775807,0.54136 -29.23893,1.71157 -55.72329,-15.39107 -63.444514,-36.40122 -6.612099,-19.488 5.354512,-38.70629 14.189482,-56.58121 7.420696,-8.62691 6.000772,-26.24291 6.995849,-31.485943 5.380711,23.663003 -15.45683,44.078273 -18.054203,66.958363 -4.159134,14.00095 2.584478,28.74884 14.950816,39.17326 12.675546,12.62726 34.061741,17.20965 54.079384,15.41779 26.950821,-1.24885 43.481841,-20.14659 66.460051,-28.45396 -20.03048,4.86611 -35.48834,20.03305 -56.2216,25.6172 -20.445569,4.82779 -44.804666,0.9251 -60.341637,-10.58882 -10.125949,-7.74896 -18.238114,-18.34086 -18.505249,-29.47216 -1.811996,-18.83146 10.239996,-36.01234 16.869049,-53.65813 4.299534,-8.15943 3.027151,-18.08965 3.808263,-26.050266 -3.993357,-0.152349 -8.172783,-0.599718 -12.55328,-1.47253 7.763348,5.405886 5.157756,17.480376 2.256724,25.725596 -8.497455,17.89957 -21.400066,35.64451 -19.718144,55.34827 -0.976172,18.12407 14.191536,33.88913 33.174032,43.46078 11.166748,4.06487 -0.638504,2.99232 -6.99585,4.26594 -6.352671,5.05542 18.493434,3.38177 24.231695,4.93726 17.157759,0.99411 34.434187,0.60517 51.567287,-0.49804 16.34608,-2.42661 -12.65705,-2.37323 -10.40901,-5.52198 22.25541,-4.37536 35.8834,-21.31222 58.33813,-25.29253 21.08875,-1.5764 35.99025,12.38273 51.08696,21.43808 15.63972,4.89617 -3.07806,5.79272 -9.70418,7.34107 22.04221,2.55412 44.43633,3.53676 66.6604,1.92728 13.53295,-3.10529 -10.54566,-3.56307 -15.37412,-5.19732 25.51497,-14.18948 40.72881,-38.5157 38.59019,-62.68934 1.40991,-3.46207 -7.00818,-23.73647 -6.1215,-14.5085 1.03423,15.69571 -3.34442,33.9929 -20.14145,44.24009 -16.83308,9.68774 -38.27938,1.00946 -49.36651,-10.26414 -12.66835,-10.58882 -26.3662,-22.93918 -46.54515,-23.75497 -29.94581,-2.19194 -51.18971,17.60984 -77.546149,24.51322 -12.044183,6.19136 -25.90591,-4.15272 -26.883521,-13.14406 2.779949,-22.49275 17.273347,-44.00892 11.368127,-66.97891 l -2.679876,-6.561245 z m -2.623469,16.47913 c 3.644335,0.0192 3.21959,7.92261 1.354013,12.47314 -4.22561,5.9792 -13.073679,-4.78325 -7.672933,-8.2072 2.837691,-3.07806 4.892779,-4.27349 6.318766,-4.26599 z m 190.384917,23.75497 c -4.56071,6.31825 11.6255,14.65902 10.12697,23.19192 4.89479,-2.66405 -4.28248,-20.04436 -10.12697,-23.19192 z m 47.33525,0.75789 c -3.74702,-0.21395 -9.35434,13.65418 -7.67293,18.14667 l 0.22573,1.64576 c 4.39185,-2.8848 -0.261,-15.2123 8.15223,-19.55427 -0.23061,-0.14638 -0.45543,-0.22391 -0.70528,-0.23819 z M 67.729319,147.94103 c 3.416808,0.17546 3.80626,6.51089 1.523285,11.1087 -0.95588,6.00847 -12.817333,-3.72633 -8.096239,-6.77804 2.841749,-3.20212 5.019668,-4.41065 6.572543,-4.33092 z M 173.5147,161.43185 c 7.81729,-0.16187 16.77812,2.68445 7.10886,7.92568 -3.72904,3.0664 -11.38559,1.72004 -13.96344,-1.81898 -4.60823,-4.03297 0.77479,-5.98074 6.85509,-6.1066 z m -41.32678,9.59322 c 6.43024,-0.35554 7.63902,10.9366 -2.96196,12.49472 l -1.80542,0.28152 -1.89003,0.12992 c -12.8872,-0.34019 -10.69053,-8.12912 0.16927,-9.39801 2.47582,-2.39132 4.6876,-3.40849 6.48829,-3.50805 z m 78.19857,8.22878 c 5.03092,0.12051 14.00043,5.37044 10.7193,9.74477 -4.25253,2.04394 -9.56137,-0.34654 -12.04521,-3.13997 -3.28972,-4.90223 -1.69271,-6.67682 1.32586,-6.60439 z M 74.640918,183.6064 c 6.738989,-0.13493 21.861387,4.23219 11.678414,9.72268 -7.271717,6.17852 -19.644682,-2.93535 -13.963444,-9.39801 0.521478,-0.21343 1.322266,-0.30557 2.284979,-0.32485 z m 208.693922,11.41179 c 0.74263,3.43767 -10.63248,16.12929 -18.53351,21.00502 l -1.74901,0.9961 -1.41047,0.77957 c 2.53999,-1.98609 17.76189,-14.80903 21.69289,-22.78043 z m -29.11204,3.01 c 5.72952,0.1717 10.96639,2.20427 4.17495,7.08112 -4.59045,2.87504 -16.33426,0.32506 -12.49677,-5.58671 1.27706,-1.01758 4.884,-1.59716 8.32177,-1.49416 z m 2.99011,21.89272 c -2.99828,2.02144 -2.86975,0.3738 0,0 z m -8.40653,2.64186 c 0.33795,0.005 0.22739,0.15403 -0.64883,0.54136 -10.44137,2.13112 -0.81579,-0.5636 0.64883,-0.54136 z"
     inkscape:connector-curvature="0" />
  <g
     id="svg_1"
     transform="matrix(0.51372076,0,0,0.51372076,-1.6205171,-7.7442559)">
    <path
       id="path2407"
       d="m 52.573,114.53 -21.314,24.198 0.9688,34.346 11.626,20.295 31.97,17.173 51.346,7.0252 30.033,-7.8058 25.189,-19.514 12.594,-17.173 2.9064,-31.223 -10.657,-21.076 -9.6879,-7.0252 -22.282,3.9029 -21.313,-3.1223 -17.438,-10.928 c -7.5105,12.417 -15.81,22.291 -31.604,20.407 l -18.774,-2.4533 -13.563,-7.0252 z"
       style="fill:#a0d82f;fill-rule:evenodd;fill-opacity:1"
       inkscape:connector-curvature="0" />
    <path
       id="path2200"
       d="m 141.28,46.077 c -4.4145,-0.27166 12.892,11.967 18.988,15.231 13.133,5.1485 -6.2163,-10.633 -9.4523,-11.577 -5.3676,-2.5046 -8.3006,-3.578 -9.536,-3.654 z m -40.562,0.239 c -4.6607,-0.35836 -28.856,7.782 -29.67,15.778 5.8629,0.99665 13.402,-7.3725 19.878,-9.221 9.9856,-4.4707 11.91,-6.3939 9.7915,-6.5569 z m 2.9662,17.007 c -29.01,1.9196 -56.103,21.492 -55.513,46.307 3.4868,9.5152 -23.635,37.466 -15.861,16.529 21.623,-19.989 -39.961,7.4748 -9.6638,3.8938 10.916,18.518 -4.2079,42.922 27.355,66.752 45.81,26.7 30.182,17.749 33.805,18.964 l 0.0852,-0.1703 c 10.172,4.762 26.304,5.6354 41.664,5.0544 8.4158,-0.76654 16.724,-2.0149 23.311,-1.8789 4.3736,-0.5136 8.1728,-1.0183 11.148,-1.4683 v 0.0343 c 1.7671,-1.0564 -3.4064,-9.9843 -0.56956,-3.412 10.814,1.3132 12.699,-1.7606 15.15,-9.0181 1.5541,-12.267 20.399,-20.23 21.446,-33.98 6.0538,-13.403 0.34079,-33.435 13.436,-43.029 28.015,2.5679 -28.234,-19.66 -10.257,-3.4158 -0.21771,21.356 -10.123,-3.4768 -14.623,-9.6296 15.733,-14.312 11.41,-40.920002 -12.971,-47.060002 -23.136,-9.9038 -45.842,4.148 -67.943,-4.4735 z m 5.4212,7.2206 c 1.7829,69.882 -24.472,52.009 -35.525,50.469 -11.052,-1.5395 -32.404,-17.16 -9.8941,-34.602 9.5627,-8.8224 30.195,-15.898 45.419,-15.868 z m 37.71,-0.7933 c 9.6985,0.03816 19.801,1.0412 25.915,3.4082 23.349,9.6792 17.977,40.865 -9.4097,42.824 -3.8182,0.57584 -3.51931,0.43821 -11.571,0.6483 -23.608,0.68774 -43.254,-20.317 -36.348,-34.358 6.9058,-14.041 21.718,-12.561 31.415,-12.523 z m -40.26,51.547 c 17.693,-8.0571 48.962,4.7798 68.336,-2.1052 20.063,2.6226 20.91,37.288 16.02,53.309 -10.016,17.715 -27.325,35.403 -51.413,40.878 -27.205,5.9392 -53.325,-1.4162 -76.644,-14.322 -21.772,-9.5241 -34.266,-30.64 -31.478,-44.826 2.7879,-14.186 13.403,-39.132 29.026,-32.956 22.014,4.7697 28.46,8.0787 46.152,0.0216 z m 28.324,1.6856 c -2.0069,0.27714 13.521,5.7994 22.507,5.9087 19.114,-0.60892 -4.9037,-3.0395 -10.639,-3.1768 -7.611,-2.1433 -11.082,-2.8399 -11.868,-2.7319 z m -51.37,4.1328 c -7.7451,0.0776 -20.511,0.70935 -25.091,1.4683 6.5351,1.364 13.362,0.5746 20.006,0.44366 15.549,-1.5191 12.83,-1.9907 5.085,-1.9119 z m 54.38,1.092 c -3.4742,-0.32291 5.0851,4.3794 12.502,5.8744 16.778,2.3454 4.5534,-1.7441 -4.5344,-3.5862 -4.3184,-1.5242 -6.8112,-2.1802 -7.9677,-2.2882 z m -54.549,4.6451 c -0.08204,-0.0509 -1.9327,0.20087 -7.0368,1.0589 -8.4015,2.0264 7.2814,-0.90892 7.0368,-1.0589 z m -6.2305,30.769 c -2.3951,0.21738 -11.284,16.023 3.2202,18.92 l 3.2218,0.853 3.9412,0.2733 c 26.584,-5.8566 -19.331,3.3942 -12.333,-11.44 2.829,-6.3994 2.8857,-8.6914 1.9501,-8.6062 z m 53.022,1.1276 c -0.19566,0.0368 0.36763,0.75638 2.3745,2.6975 8.9285,5.8896 -1.674,-2.8285 -2.3745,-2.6975 z m -44.418,0.6826 c -3.7582,0.0699 -5.9434,2.9124 -0.84728,11.168 20.948,-1.3729 8.0229,-11.301 0.84728,-11.168 z m 40.648,3.7565 c -7.5954,0.0407 -18.86,6.2863 -4.7901,10.04 3.0955,3.0471 6.3946,0.25932 8.2232,-1.5369 4.372,-6.3155 1.1234,-8.5274 -3.4331,-8.5033 z m 10.001,5.8057 c -0.2083,0 -0.43228,0.0788 -0.7195,0.23901 0.98769,13.781 -26.419,1.903 -13.14,9.3576 11.393,6.9943 16.992,-9.6029 13.859,-9.5966 z"
       inkscape:connector-curvature="0"
       sodipodi:nodetypes="ccccccccccccccccccccccccccccccccccccccccccccccccccccccccccccccccccccccccccccccccccccccccccc" />
    <g
       stroke-width="null"
       id="g20">
      <ellipse
         id="svg_7"
         cy="98.233002"
         cx="139.85001"
         rx="10.058"
         ry="9.3753004" />
      <ellipse
         id="svg_8"
         cy="97.757004"
         cx="91.335999"
         rx="10.058"
         ry="9.3753004" />
    </g>
  </g>
</svg>
