<?xml version="1.0" encoding="UTF-8" standalone="no"?>
<!-- Created with Inkscape (http://www.inkscape.org/) -->
<svg xmlns:dc="http://purl.org/dc/elements/1.1/" xmlns:cc="http://web.resource.org/cc/" xmlns:rdf="http://www.w3.org/1999/02/22-rdf-syntax-ns#" xmlns:svg="http://www.w3.org/2000/svg" xmlns="http://www.w3.org/2000/svg" xmlns:xlink="http://www.w3.org/1999/xlink" xmlns:sodipodi="http://sodipodi.sourceforge.net/DTD/sodipodi-0.dtd" xmlns:inkscape="http://www.inkscape.org/namespaces/inkscape" width="1007" height="1539" id="svg2266" sodipodi:version="0.32" inkscape:version="0.44" version="1.0" sodipodi:docbase="C:\Documents and Settings\ryan\Desktop" sodipodi:docname="balloon-wip02.svg">
  <defs id="defs3">
    <linearGradient id="linearGradient3793">
      <stop style="stop-color:#180218;stop-opacity:1;" offset="0" id="stop3797"/>
      <stop id="stop3825" offset="0.25" style="stop-color:white;stop-opacity:1;"/>
      <stop style="stop-color:white;stop-opacity:1;" offset="0.25" id="stop3827"/>
      <stop id="stop3821" offset="0.5" style="stop-color:white;stop-opacity:1;"/>
      <stop style="stop-color:white;stop-opacity:1;" offset="0.5" id="stop3829"/>
      <stop style="stop-color:white;stop-opacity:1;" offset="0.75" id="stop3823"/>
      <stop id="stop3819" offset="1" style="stop-color:#180218;stop-opacity:1;"/>
    </linearGradient>
    <linearGradient id="linearGradient33072">
      <stop id="stop33074" offset="0" style="stop-color:black;stop-opacity:1;"/>
      <stop id="stop33076" offset="1" style="stop-color:white;stop-opacity:1;"/>
    </linearGradient>
    <linearGradient id="linearGradient31255">
      <stop id="stop31257" offset="0" style="stop-color:black;stop-opacity:1;"/>
      <stop id="stop31259" offset="1" style="stop-color:white;stop-opacity:1;"/>
    </linearGradient>
    <linearGradient id="linearGradient30343">
      <stop style="stop-color:black;stop-opacity:1;" offset="0" id="stop30345"/>
      <stop style="stop-color:white;stop-opacity:1;" offset="1" id="stop30347"/>
    </linearGradient>
    <linearGradient id="linearGradient30333">
      <stop style="stop-color:black;stop-opacity:1;" offset="0" id="stop30335"/>
      <stop style="stop-color:white;stop-opacity:1;" offset="1" id="stop30337"/>
    </linearGradient>
    <linearGradient id="linearGradient29314">
      <stop style="stop-color:#4f4f4f;stop-opacity:0.32110092;" offset="0" id="stop29316"/>
      <stop style="stop-color:#f25af2;stop-opacity:0;" offset="1" id="stop29318"/>
    </linearGradient>
    <linearGradient inkscape:collect="always" xlink:href="#linearGradient29314" id="linearGradient29320" x1="146.08488" y1="-209.6212" x2="236.88808" y2="-209.6212" gradientUnits="userSpaceOnUse"/>
    <linearGradient inkscape:collect="always" xlink:href="#linearGradient29314" id="linearGradient29436" gradientUnits="userSpaceOnUse" x1="103.65848" y1="-241.94609" x2="350.4003" y2="-263.1593" gradientTransform="translate(-104.0269,20.29006)"/>
    <linearGradient inkscape:collect="always" xlink:href="#linearGradient29314" id="linearGradient29440" gradientUnits="userSpaceOnUse" gradientTransform="translate(-187.159,59.16064)" x1="58.201614" y1="-236.89532" x2="401.91809" y2="-369.73044"/>
    <linearGradient inkscape:collect="always" xlink:href="#linearGradient29314" id="linearGradient29444" gradientUnits="userSpaceOnUse" gradientTransform="translate(-270.0942,144.0135)" x1="143.61029" y1="-235.88518" x2="337.26831" y2="-325.28372"/>
  </defs>
  <sodipodi:namedview inkscape:document-units="mm" id="base" pagecolor="#ffffff" bordercolor="#666666" borderopacity="1.0" inkscape:pageopacity="0.0" inkscape:pageshadow="2" inkscape:zoom="0.70710678" inkscape:cx="451.1945" inkscape:cy="1098.8784" inkscape:current-layer="layer1" inkscape:window-width="1280" inkscape:window-height="968" inkscape:window-x="-4" inkscape:window-y="-4"/>
  <metadata id="metadata4">
    <rdf:RDF>
      <cc:Work rdf:about="">
        <dc:format>image/svg+xml</dc:format>
        <dc:type rdf:resource="http://purl.org/dc/dcmitype/StillImage"/>
      </cc:Work>
    </rdf:RDF>
  </metadata>
  <g inkscape:label="Layer 1" inkscape:groupmode="layer" id="layer1" transform="translate(160.0481,608.0923)">
    <path sodipodi:nodetypes="ccccc" transform="translate(-160.0481,-608.0923)" id="path5352" d="M 417.69808,785.4262 C 414.22448,784.5756 465.4594,115.29547 444.46775,8.4926019 C 490.33196,12.503596 533.89777,11.056294 553.55382,29.82129 C 685.49915,172.43345 457.59911,786.43636 457.59911,786.43636 L 417.69808,785.4262 z " style="fill:#fff74d;fill-opacity:1;fill-rule:evenodd;stroke:#180218;stroke-width:1px;stroke-linecap:butt;stroke-linejoin:miter;stroke-opacity:0"/>
    <path sodipodi:nodetypes="ccccc" transform="translate(-160.0481,-608.0923)" id="path8897" d="M 493.45952,794.51757 C 489.98592,793.66697 838.20569,268.83866 663.67085,78.193128 C 663.06805,67.051833 764.21255,148.43704 782.85845,215.68936 C 833.99157,459.31677 506.08643,800.5785 506.08643,800.5785 L 493.45952,794.51757 z " style="fill:#fff74d;fill-opacity:1;fill-rule:evenodd;stroke:#180218;stroke-width:1px;stroke-linecap:butt;stroke-linejoin:miter;stroke-opacity:0"/>
    <path sodipodi:nodetypes="ccscc" transform="translate(-160.0481,-608.0923)" id="path12459" d="M 344.9671,795.52773 C 333.41228,748.21011 26.043043,191.05691 247.488,29.705805 C 283.25069,14.523901 341.15531,9.3515079 339.40148,10.628391 C 230.93051,89.600948 378.80721,788.45666 378.80721,788.45666 L 344.9671,795.52773 z " style="fill:#fff74d;fill-opacity:1;fill-rule:evenodd;stroke:#180218;stroke-width:1px;stroke-linecap:butt;stroke-linejoin:miter;stroke-opacity:0"/>
    <path sodipodi:nodetypes="ccccc" transform="translate(-160.0481,-608.0923)" id="path16003" d="M 298.50008,808.65971 C 240.47825,725.98675 53.317161,548.65091 24.244287,334.77187 C 31.722706,158.97571 140.13495,86.123101 139.39128,87.399984 C -65.34081,294.32638 317.1879,801.58864 317.1879,801.58864 L 298.50008,808.65971 z " style="fill:#fff74d;fill-opacity:1;fill-rule:evenodd;stroke:#180218;stroke-width:1px;stroke-linecap:butt;stroke-linejoin:miter;stroke-opacity:0"/>
    <path style="fill:#ff1a1a;fill-opacity:1;fill-rule:evenodd;stroke:#180218;stroke-width:1px;stroke-linecap:butt;stroke-linejoin:miter;stroke-opacity:0" d="M 257.64998,177.3339 C 254.17638,176.4833 305.4113,-492.79683 284.41965,-599.5997 C 246.4412,-605.69023 181.10721,-598.74079 179.35338,-597.46391 C 70.88241,-518.49135 218.75911,180.36436 218.75911,180.36436 L 257.64998,177.3339 z " id="path3576" sodipodi:nodetypes="ccscc"/>
    <path style="fill:#ff1a1a;fill-opacity:1;fill-rule:evenodd;stroke:#180218;stroke-width:1px;stroke-linecap:butt;stroke-linejoin:miter;stroke-opacity:0" d="M 333.41142,186.42527 C 329.93782,185.57467 678.15759,-339.25364 503.62275,-529.89917 C 503.01995,-541.04047 373.84967,-597.03601 393.50572,-578.27101 C 525.45105,-435.65885 297.55101,178.34406 297.55101,178.34406 L 333.41142,186.42527 z " id="path7125" sodipodi:nodetypes="ccccc"/>
    <path style="fill:#ff1a1a;fill-opacity:1;fill-rule:evenodd;stroke:#180218;stroke-width:1px;stroke-linecap:butt;stroke-linejoin:miter;stroke-opacity:0" d="M 365.7363,203.59786 C 578.76677,-7.37764 714.5447,-171.1027 622.81035,-392.40294 C 673.94347,-148.77553 346.03833,192.4862 346.03833,192.4862 L 365.7363,203.59786 z " id="path10687" sodipodi:nodetypes="cccc"/>
    <path style="fill:#ff1a1a;fill-opacity:1;fill-rule:evenodd;stroke:#180218;stroke-width:1px;stroke-linecap:butt;stroke-linejoin:miter;stroke-opacity:0" d="M 184.919,187.43543 C 173.36418,140.11781 -134.00506,-417.03539 87.4399,-578.38649 C 123.20259,-593.5684 11.40158,-555.30423 -20.65682,-520.69232 C -225.38891,-313.76592 157.1398,193.49634 157.1398,193.49634 L 184.919,187.43543 z " id="path14231" sodipodi:nodetypes="ccccc"/>
    <path style="fill:#ff1a1a;fill-opacity:1;fill-rule:evenodd;stroke:#180218;stroke-width:1px;stroke-linecap:butt;stroke-linejoin:miter;stroke-opacity:0" d="M 138.45198,200.56741 C 80.43015,117.89445 -106.73094,-59.44139 -135.80381,-273.32043 C -135.30222,-272.21417 -149.36339,-38.84209 129.86568,205.61817 L 138.45198,200.56741 z " id="path18660" sodipodi:nodetypes="cccc"/>
    <path id="path2680" style="fill:none;fill-opacity:0.75;fill-rule:evenodd;stroke:#1c031c;stroke-width:5.2511811;stroke-linecap:butt;stroke-linejoin:miter;stroke-opacity:1;stroke-miterlimit:4;stroke-dasharray:none" d="M 357.81129,213.24102 L 338.72683,237.57806 C 331.04986,274.3683 325.37446,280.89221 323.08151,281.64572 C 231.60304,311.70717 183.99419,287.108 180.30716,277.40077 C 173.55215,259.61615 132.73424,209.69325 128.48149,205.9791 C -123.47404,-14.06687 -132.77398,-238.84894 -132.77398,-238.84894 C -132.77398,-238.84894 -173.18009,-545.93532 168.25147,-597.4531 C 170.27178,-594.42264 189.33053,-610.18571 338.96726,-595.4328 C 356.89747,-593.66503 667.45981,-544.86476 650.09424,-230.76773 C 654.49747,-61.01983 357.81129,213.24102 357.81129,213.24102 z " sodipodi:nodetypes="ccsssccscc"/>
    <path style="fill:none;fill-opacity:0;fill-rule:evenodd;stroke:black;stroke-width:1px;stroke-linecap:butt;stroke-linejoin:miter;stroke-opacity:1;opacity:0.5" d="M 284.90625,-599.6875 L 283.9375,-599.5 C 289.15893,-572.93401 289.89058,-511.04944 288.09375,-433.28125 C 286.29692,-355.51306 281.96889,-261.82319 277.09375,-171.4375 C 272.21861,-81.051808 266.79932,6.0288566 262.8125,70.5625 C 260.81909,102.82932 259.18393,129.46897 258.15625,148.0625 C 257.64241,157.35927 257.27331,164.6436 257.09375,169.625 C 257.00397,172.1157 256.96312,174.03577 256.96875,175.34375 C 256.97156,175.99774 257.00105,176.48303 257.03125,176.84375 C 257.04635,177.02411 257.0628,177.18029 257.09375,177.3125 C 257.10922,177.3786 257.11438,177.44809 257.15625,177.53125 C 257.19812,177.61441 257.28348,177.75183 257.53125,177.8125 L 257.78125,176.84375 C 258.00189,176.89778 258.04444,177.02663 258.0625,177.0625 C 258.05222,177.01144 258.04291,176.92056 258.03125,176.78125 C 258.00536,176.47202 257.97151,175.9843 257.96875,175.34375 C 257.96324,174.06265 258.00421,172.1403 258.09375,169.65625 C 258.27283,164.68815 258.64257,157.41887 259.15625,148.125 C 260.18361,129.53727 261.81911,102.8916 263.8125,70.625 C 267.79929,6.0918001 273.21832,-80.983977 278.09375,-171.375 C 282.96918,-261.76602 287.29649,-355.46328 289.09375,-433.25 C 290.89101,-511.03672 290.18064,-572.85205 284.90625,-599.6875 z " id="path12972"/>
    <path id="path15636" d="M 282.90625,-599.6875 L 281.9375,-599.5 C 287.15893,-572.93401 287.89058,-511.04944 286.09375,-433.28125 C 284.29692,-355.51306 279.96889,-261.82319 275.09375,-171.4375 C 270.21861,-81.051808 264.79932,6.0288566 260.8125,70.5625 C 258.81909,102.82932 257.18393,129.46897 256.15625,148.0625 C 255.64241,157.35927 255.27331,164.6436 255.09375,169.625 C 255.00397,172.1157 254.96312,174.03577 254.96875,175.34375 C 254.97156,175.99774 255.00105,176.48303 255.03125,176.84375 C 255.04635,177.02411 255.0628,177.18029 255.09375,177.3125 C 255.10922,177.3786 255.11438,177.44809 255.15625,177.53125 C 255.19812,177.61441 255.28348,177.75183 255.53125,177.8125 L 255.78125,176.84375 C 256.00189,176.89778 256.04444,177.02663 256.0625,177.0625 C 256.05222,177.01144 256.04291,176.92056 256.03125,176.78125 C 256.00536,176.47202 255.97151,175.9843 255.96875,175.34375 C 255.96324,174.06265 256.00421,172.1403 256.09375,169.65625 C 256.27283,164.68815 256.64257,157.41887 257.15625,148.125 C 258.18361,129.53727 259.81911,102.8916 261.8125,70.625 C 265.79929,6.0918001 271.21832,-80.983977 276.09375,-171.375 C 280.96918,-261.76602 285.29649,-355.46328 287.09375,-433.25 C 288.89101,-511.03672 288.18064,-572.85205 282.90625,-599.6875 z " style="opacity:0.45;fill:none;fill-opacity:0;fill-rule:evenodd;stroke:black;stroke-width:1px;stroke-linecap:butt;stroke-linejoin:miter;stroke-opacity:1"/>
    <path style="opacity:0.4;fill:none;fill-opacity:0;fill-rule:evenodd;stroke:black;stroke-width:1px;stroke-linecap:butt;stroke-linejoin:miter;stroke-opacity:1" d="M 280.90625,-599.6875 L 279.9375,-599.5 C 285.15893,-572.93401 285.89058,-511.04944 284.09375,-433.28125 C 282.29692,-355.51306 277.96889,-261.82319 273.09375,-171.4375 C 268.21861,-81.051808 262.79932,6.0288566 258.8125,70.5625 C 256.81909,102.82932 255.18393,129.46897 254.15625,148.0625 C 253.64241,157.35927 253.27331,164.6436 253.09375,169.625 C 253.00397,172.1157 252.96312,174.03577 252.96875,175.34375 C 252.97156,175.99774 253.00105,176.48303 253.03125,176.84375 C 253.04635,177.02411 253.0628,177.18029 253.09375,177.3125 C 253.10922,177.3786 253.11438,177.44809 253.15625,177.53125 C 253.19812,177.61441 253.28348,177.75183 253.53125,177.8125 L 253.78125,176.84375 C 254.00189,176.89778 254.04444,177.02663 254.0625,177.0625 C 254.05222,177.01144 254.04291,176.92056 254.03125,176.78125 C 254.00536,176.47202 253.97151,175.9843 253.96875,175.34375 C 253.96324,174.06265 254.00421,172.1403 254.09375,169.65625 C 254.27283,164.68815 254.64257,157.41887 255.15625,148.125 C 256.18361,129.53727 257.81911,102.8916 259.8125,70.625 C 263.79929,6.0918001 269.21832,-80.983977 274.09375,-171.375 C 278.96918,-261.76602 283.29649,-355.46328 285.09375,-433.25 C 286.89101,-511.03672 286.18064,-572.85205 280.90625,-599.6875 z " id="path15640"/>
    <path id="path15642" d="M 278.90625,-599.6875 L 277.9375,-599.5 C 283.15893,-572.93401 283.89058,-511.04944 282.09375,-433.28125 C 280.29692,-355.51306 275.96889,-261.82319 271.09375,-171.4375 C 266.21861,-81.051808 260.79932,6.0288566 256.8125,70.5625 C 254.81909,102.82932 253.18393,129.46897 252.15625,148.0625 C 251.64241,157.35927 251.27331,164.6436 251.09375,169.625 C 251.00397,172.1157 250.96312,174.03577 250.96875,175.34375 C 250.97156,175.99774 251.00105,176.48303 251.03125,176.84375 C 251.04635,177.02411 251.0628,177.18029 251.09375,177.3125 C 251.10922,177.3786 251.11438,177.44809 251.15625,177.53125 C 251.19812,177.61441 251.28348,177.75183 251.53125,177.8125 L 251.78125,176.84375 C 252.00189,176.89778 252.04444,177.02663 252.0625,177.0625 C 252.05222,177.01144 252.04291,176.92056 252.03125,176.78125 C 252.00536,176.47202 251.97151,175.9843 251.96875,175.34375 C 251.96324,174.06265 252.00421,172.1403 252.09375,169.65625 C 252.27283,164.68815 252.64257,157.41887 253.15625,148.125 C 254.18361,129.53727 255.81911,102.8916 257.8125,70.625 C 261.79929,6.0918001 267.21832,-80.983977 272.09375,-171.375 C 276.96918,-261.76602 281.29649,-355.46328 283.09375,-433.25 C 284.89101,-511.03672 284.18064,-572.85205 278.90625,-599.6875 z " style="opacity:0.35;fill:none;fill-opacity:0;fill-rule:evenodd;stroke:black;stroke-width:1px;stroke-linecap:butt;stroke-linejoin:miter;stroke-opacity:1"/>
    <path style="opacity:0.3;fill:none;fill-opacity:0;fill-rule:evenodd;stroke:black;stroke-width:1px;stroke-linecap:butt;stroke-linejoin:miter;stroke-opacity:1" d="M 276.90625,-599.6875 L 275.9375,-599.5 C 281.15893,-572.93401 281.89058,-511.04944 280.09375,-433.28125 C 278.29692,-355.51306 273.96889,-261.82319 269.09375,-171.4375 C 264.21861,-81.051808 258.79932,6.0288566 254.8125,70.5625 C 252.81909,102.82932 251.18393,129.46897 250.15625,148.0625 C 249.64241,157.35927 249.27331,164.6436 249.09375,169.625 C 249.00397,172.1157 248.96312,174.03577 248.96875,175.34375 C 248.97156,175.99774 249.00105,176.48303 249.03125,176.84375 C 249.04635,177.02411 249.0628,177.18029 249.09375,177.3125 C 249.10922,177.3786 249.11438,177.44809 249.15625,177.53125 C 249.19812,177.61441 249.28348,177.75183 249.53125,177.8125 L 249.78125,176.84375 C 250.00189,176.89778 250.04444,177.02663 250.0625,177.0625 C 250.05222,177.01144 250.04291,176.92056 250.03125,176.78125 C 250.00536,176.47202 249.97151,175.9843 249.96875,175.34375 C 249.96324,174.06265 250.00421,172.1403 250.09375,169.65625 C 250.27283,164.68815 250.64257,157.41887 251.15625,148.125 C 252.18361,129.53727 253.81911,102.8916 255.8125,70.625 C 259.79929,6.0918001 265.21832,-80.983977 270.09375,-171.375 C 274.96918,-261.76602 279.29649,-355.46328 281.09375,-433.25 C 282.89101,-511.03672 282.18064,-572.85205 276.90625,-599.6875 z " id="path15644"/>
    <path id="path15646" d="M 274.90625,-599.6875 L 273.9375,-599.5 C 279.15893,-572.93401 279.89058,-511.04944 278.09375,-433.28125 C 276.29692,-355.51306 271.96889,-261.82319 267.09375,-171.4375 C 262.21861,-81.051808 256.79932,6.0288566 252.8125,70.5625 C 250.81909,102.82932 249.18393,129.46897 248.15625,148.0625 C 247.64241,157.35927 247.27331,164.6436 247.09375,169.625 C 247.00397,172.1157 246.96312,174.03577 246.96875,175.34375 C 246.97156,175.99774 247.00105,176.48303 247.03125,176.84375 C 247.04635,177.02411 247.0628,177.18029 247.09375,177.3125 C 247.10922,177.3786 247.11438,177.44809 247.15625,177.53125 C 247.19812,177.61441 247.28348,177.75183 247.53125,177.8125 L 247.78125,176.84375 C 248.00189,176.89778 248.04444,177.02663 248.0625,177.0625 C 248.05222,177.01144 248.04291,176.92056 248.03125,176.78125 C 248.00536,176.47202 247.97151,175.9843 247.96875,175.34375 C 247.96324,174.06265 248.00421,172.1403 248.09375,169.65625 C 248.27283,164.68815 248.64257,157.41887 249.15625,148.125 C 250.18361,129.53727 251.81911,102.8916 253.8125,70.625 C 257.79929,6.0918001 263.21832,-80.983977 268.09375,-171.375 C 272.96918,-261.76602 277.29649,-355.46328 279.09375,-433.25 C 280.89101,-511.03672 280.18064,-572.85205 274.90625,-599.6875 z " style="opacity:0.25;fill:none;fill-opacity:0;fill-rule:evenodd;stroke:black;stroke-width:1px;stroke-linecap:butt;stroke-linejoin:miter;stroke-opacity:1"/>
    <path style="opacity:0.2;fill:none;fill-opacity:0;fill-rule:evenodd;stroke:black;stroke-width:1px;stroke-linecap:butt;stroke-linejoin:miter;stroke-opacity:1" d="M 272.90625,-599.6875 L 271.9375,-599.5 C 277.15893,-572.93401 277.89058,-511.04944 276.09375,-433.28125 C 274.29692,-355.51306 269.96889,-261.82319 265.09375,-171.4375 C 260.21861,-81.051808 254.79932,6.0288566 250.8125,70.5625 C 248.81909,102.82932 247.18393,129.46897 246.15625,148.0625 C 245.64241,157.35927 245.27331,164.6436 245.09375,169.625 C 245.00397,172.1157 244.96312,174.03577 244.96875,175.34375 C 244.97156,175.99774 245.00105,176.48303 245.03125,176.84375 C 245.04635,177.02411 245.0628,177.18029 245.09375,177.3125 C 245.10922,177.3786 245.11438,177.44809 245.15625,177.53125 C 245.19812,177.61441 245.28348,177.75183 245.53125,177.8125 L 245.78125,176.84375 C 246.00189,176.89778 246.04444,177.02663 246.0625,177.0625 C 246.05222,177.01144 246.04291,176.92056 246.03125,176.78125 C 246.00536,176.47202 245.97151,175.9843 245.96875,175.34375 C 245.96324,174.06265 246.00421,172.1403 246.09375,169.65625 C 246.27283,164.68815 246.64257,157.41887 247.15625,148.125 C 248.18361,129.53727 249.81911,102.8916 251.8125,70.625 C 255.79929,6.0918001 261.21832,-80.983977 266.09375,-171.375 C 270.96918,-261.76602 275.29649,-355.46328 277.09375,-433.25 C 278.89101,-511.03672 278.18064,-572.85205 272.90625,-599.6875 z " id="path15648"/>
    <path id="path15650" d="M 270.90625,-599.6875 L 269.9375,-599.5 C 275.15893,-572.93401 275.89058,-511.04944 274.09375,-433.28125 C 272.29692,-355.51306 267.96889,-261.82319 263.09375,-171.4375 C 258.21861,-81.051808 252.79932,6.0288566 248.8125,70.5625 C 246.81909,102.82932 245.18393,129.46897 244.15625,148.0625 C 243.64241,157.35927 243.27331,164.6436 243.09375,169.625 C 243.00397,172.1157 242.96312,174.03577 242.96875,175.34375 C 242.97156,175.99774 243.00105,176.48303 243.03125,176.84375 C 243.04635,177.02411 243.0628,177.18029 243.09375,177.3125 C 243.10922,177.3786 243.11438,177.44809 243.15625,177.53125 C 243.19812,177.61441 243.28348,177.75183 243.53125,177.8125 L 243.78125,176.84375 C 244.00189,176.89778 244.04444,177.02663 244.0625,177.0625 C 244.05222,177.01144 244.04291,176.92056 244.03125,176.78125 C 244.00536,176.47202 243.97151,175.9843 243.96875,175.34375 C 243.96324,174.06265 244.00421,172.1403 244.09375,169.65625 C 244.27283,164.68815 244.64257,157.41887 245.15625,148.125 C 246.18361,129.53727 247.81911,102.8916 249.8125,70.625 C 253.79929,6.0918001 259.21832,-80.983977 264.09375,-171.375 C 268.96918,-261.76602 273.29649,-355.46328 275.09375,-433.25 C 276.89101,-511.03672 276.18064,-572.85205 270.90625,-599.6875 z " style="opacity:0.15;fill:none;fill-opacity:0;fill-rule:evenodd;stroke:black;stroke-width:1px;stroke-linecap:butt;stroke-linejoin:miter;stroke-opacity:1"/>
    <path style="opacity:0.1;fill:none;fill-opacity:0;fill-rule:evenodd;stroke:black;stroke-width:1px;stroke-linecap:butt;stroke-linejoin:miter;stroke-opacity:1" d="M 268.90625,-599.6875 L 267.9375,-599.5 C 273.15893,-572.93401 273.89058,-511.04944 272.09375,-433.28125 C 270.29692,-355.51306 265.96889,-261.82319 261.09375,-171.4375 C 256.21861,-81.051808 250.79932,6.0288566 246.8125,70.5625 C 244.81909,102.82932 243.18393,129.46897 242.15625,148.0625 C 241.64241,157.35927 241.27331,164.6436 241.09375,169.625 C 241.00397,172.1157 240.96312,174.03577 240.96875,175.34375 C 240.97156,175.99774 241.00105,176.48303 241.03125,176.84375 C 241.04635,177.02411 241.0628,177.18029 241.09375,177.3125 C 241.10922,177.3786 241.11438,177.44809 241.15625,177.53125 C 241.19812,177.61441 241.28348,177.75183 241.53125,177.8125 L 241.78125,176.84375 C 242.00189,176.89778 242.04444,177.02663 242.0625,177.0625 C 242.05222,177.01144 242.04291,176.92056 242.03125,176.78125 C 242.00536,176.47202 241.97151,175.9843 241.96875,175.34375 C 241.96324,174.06265 242.00421,172.1403 242.09375,169.65625 C 242.27283,164.68815 242.64257,157.41887 243.15625,148.125 C 244.18361,129.53727 245.81911,102.8916 247.8125,70.625 C 251.79929,6.0918001 257.21832,-80.983977 262.09375,-171.375 C 266.96918,-261.76602 271.29649,-355.46328 273.09375,-433.25 C 274.89101,-511.03672 274.18064,-572.85205 268.90625,-599.6875 z " id="path15652"/>
    <path id="path15654" d="M 266.90625,-599.6875 L 265.9375,-599.5 C 271.15893,-572.93401 271.89058,-511.04944 270.09375,-433.28125 C 268.29692,-355.51306 263.96889,-261.82319 259.09375,-171.4375 C 254.21861,-81.051808 248.79932,6.0288566 244.8125,70.5625 C 242.81909,102.82932 241.18393,129.46897 240.15625,148.0625 C 239.64241,157.35927 239.27331,164.6436 239.09375,169.625 C 239.00397,172.1157 238.96312,174.03577 238.96875,175.34375 C 238.97156,175.99774 239.00105,176.48303 239.03125,176.84375 C 239.04635,177.02411 239.0628,177.18029 239.09375,177.3125 C 239.10922,177.3786 239.11438,177.44809 239.15625,177.53125 C 239.19812,177.61441 239.28348,177.75183 239.53125,177.8125 L 239.78125,176.84375 C 240.00189,176.89778 240.04444,177.02663 240.0625,177.0625 C 240.05222,177.01144 240.04291,176.92056 240.03125,176.78125 C 240.00536,176.47202 239.97151,175.9843 239.96875,175.34375 C 239.96324,174.06265 240.00421,172.1403 240.09375,169.65625 C 240.27283,164.68815 240.64257,157.41887 241.15625,148.125 C 242.18361,129.53727 243.81911,102.8916 245.8125,70.625 C 249.79929,6.0918001 255.21832,-80.983977 260.09375,-171.375 C 264.96918,-261.76602 269.29649,-355.46328 271.09375,-433.25 C 272.89101,-511.03672 272.18064,-572.85205 266.90625,-599.6875 z " style="opacity:0.05;fill:none;fill-opacity:0;fill-rule:evenodd;stroke:black;stroke-width:1px;stroke-linecap:butt;stroke-linejoin:miter;stroke-opacity:1"/>
    <path id="path15656" d="M 286.90625,-599.6875 L 285.9375,-599.5 C 291.15893,-572.93401 291.89058,-511.04944 290.09375,-433.28125 C 288.29692,-355.51306 283.96889,-261.82319 279.09375,-171.4375 C 274.21861,-81.051808 268.79932,6.0288566 264.8125,70.5625 C 262.81909,102.82932 261.18393,129.46897 260.15625,148.0625 C 259.64241,157.35927 259.27331,164.6436 259.09375,169.625 C 259.00397,172.1157 258.96312,174.03577 258.96875,175.34375 C 258.97156,175.99774 259.00105,176.48303 259.03125,176.84375 C 259.04635,177.02411 259.0628,177.18029 259.09375,177.3125 C 259.10922,177.3786 259.11438,177.44809 259.15625,177.53125 C 259.19812,177.61441 259.28348,177.75183 259.53125,177.8125 L 259.78125,176.84375 C 260.00189,176.89778 260.04444,177.02663 260.0625,177.0625 C 260.05222,177.01144 260.04291,176.92056 260.03125,176.78125 C 260.00536,176.47202 259.97151,175.9843 259.96875,175.34375 C 259.96324,174.06265 260.00421,172.1403 260.09375,169.65625 C 260.27283,164.68815 260.64257,157.41887 261.15625,148.125 C 262.18361,129.53727 263.81911,102.8916 265.8125,70.625 C 269.79929,6.0918001 275.21832,-80.983977 280.09375,-171.375 C 284.96918,-261.76602 289.29649,-355.46328 291.09375,-433.25 C 292.89101,-511.03672 292.18064,-572.85205 286.90625,-599.6875 z " style="opacity:0.45;fill:none;fill-opacity:0;fill-rule:evenodd;stroke:black;stroke-width:1px;stroke-linecap:butt;stroke-linejoin:miter;stroke-opacity:1"/>
    <path style="opacity:0.4;fill:none;fill-opacity:0;fill-rule:evenodd;stroke:black;stroke-width:1px;stroke-linecap:butt;stroke-linejoin:miter;stroke-opacity:1" d="M 288.90625,-599.6875 L 287.9375,-599.5 C 293.15893,-572.93401 293.89058,-511.04944 292.09375,-433.28125 C 290.29692,-355.51306 285.96889,-261.82319 281.09375,-171.4375 C 276.21861,-81.051808 270.79932,6.0288566 266.8125,70.5625 C 264.81909,102.82932 263.18393,129.46897 262.15625,148.0625 C 261.64241,157.35927 261.27331,164.6436 261.09375,169.625 C 261.00397,172.1157 260.96312,174.03577 260.96875,175.34375 C 260.97156,175.99774 261.00105,176.48303 261.03125,176.84375 C 261.04635,177.02411 261.0628,177.18029 261.09375,177.3125 C 261.10922,177.3786 261.11438,177.44809 261.15625,177.53125 C 261.19812,177.61441 261.28348,177.75183 261.53125,177.8125 L 261.78125,176.84375 C 262.00189,176.89778 262.04444,177.02663 262.0625,177.0625 C 262.05222,177.01144 262.04291,176.92056 262.03125,176.78125 C 262.00536,176.47202 261.97151,175.9843 261.96875,175.34375 C 261.96324,174.06265 262.00421,172.1403 262.09375,169.65625 C 262.27283,164.68815 262.64257,157.41887 263.15625,148.125 C 264.18361,129.53727 265.81911,102.8916 267.8125,70.625 C 271.79929,6.0918001 277.21832,-80.983977 282.09375,-171.375 C 286.96918,-261.76602 291.29649,-355.46328 293.09375,-433.25 C 294.89101,-511.03672 294.18064,-572.85205 288.90625,-599.6875 z " id="path15658"/>
    <path id="path15660" d="M 290.90625,-599.6875 L 289.9375,-599.5 C 295.15893,-572.93401 295.89058,-511.04944 294.09375,-433.28125 C 292.29692,-355.51306 287.96889,-261.82319 283.09375,-171.4375 C 278.21861,-81.051808 272.79932,6.0288566 268.8125,70.5625 C 266.81909,102.82932 265.18393,129.46897 264.15625,148.0625 C 263.64241,157.35927 263.27331,164.6436 263.09375,169.625 C 263.00397,172.1157 262.96312,174.03577 262.96875,175.34375 C 262.97156,175.99774 263.00105,176.48303 263.03125,176.84375 C 263.04635,177.02411 263.0628,177.18029 263.09375,177.3125 C 263.10922,177.3786 263.11438,177.44809 263.15625,177.53125 C 263.19812,177.61441 263.28348,177.75183 263.53125,177.8125 L 263.78125,176.84375 C 264.00189,176.89778 264.04444,177.02663 264.0625,177.0625 C 264.05222,177.01144 264.04291,176.92056 264.03125,176.78125 C 264.00536,176.47202 263.97151,175.9843 263.96875,175.34375 C 263.96324,174.06265 264.00421,172.1403 264.09375,169.65625 C 264.27283,164.68815 264.64257,157.41887 265.15625,148.125 C 266.18361,129.53727 267.81911,102.8916 269.8125,70.625 C 273.79929,6.0918001 279.21832,-80.983977 284.09375,-171.375 C 288.96918,-261.76602 293.29649,-355.46328 295.09375,-433.25 C 296.89101,-511.03672 296.18064,-572.85205 290.90625,-599.6875 z " style="opacity:0.35;fill:none;fill-opacity:0;fill-rule:evenodd;stroke:black;stroke-width:1px;stroke-linecap:butt;stroke-linejoin:miter;stroke-opacity:1"/>
    <path style="opacity:0.3;fill:none;fill-opacity:0;fill-rule:evenodd;stroke:black;stroke-width:1px;stroke-linecap:butt;stroke-linejoin:miter;stroke-opacity:1" d="M 292.90625,-599.6875 L 291.9375,-599.5 C 297.15893,-572.93401 297.89058,-511.04944 296.09375,-433.28125 C 294.29692,-355.51306 289.96889,-261.82319 285.09375,-171.4375 C 280.21861,-81.051808 274.79932,6.0288566 270.8125,70.5625 C 268.81909,102.82932 267.18393,129.46897 266.15625,148.0625 C 265.64241,157.35927 265.27331,164.6436 265.09375,169.625 C 265.00397,172.1157 264.96312,174.03577 264.96875,175.34375 C 264.97156,175.99774 265.00105,176.48303 265.03125,176.84375 C 265.04635,177.02411 265.0628,177.18029 265.09375,177.3125 C 265.10922,177.3786 265.11438,177.44809 265.15625,177.53125 C 265.19812,177.61441 265.28348,177.75183 265.53125,177.8125 L 265.78125,176.84375 C 266.00189,176.89778 266.04444,177.02663 266.0625,177.0625 C 266.05222,177.01144 266.04291,176.92056 266.03125,176.78125 C 266.00536,176.47202 265.97151,175.9843 265.96875,175.34375 C 265.96324,174.06265 266.00421,172.1403 266.09375,169.65625 C 266.27283,164.68815 266.64257,157.41887 267.15625,148.125 C 268.18361,129.53727 269.81911,102.8916 271.8125,70.625 C 275.79929,6.0918001 281.21832,-80.983977 286.09375,-171.375 C 290.96918,-261.76602 295.29649,-355.46328 297.09375,-433.25 C 298.89101,-511.03672 298.18064,-572.85205 292.90625,-599.6875 z " id="path15664"/>
    <path id="path15666" d="M 294.90625,-599.6875 L 293.9375,-599.5 C 299.15893,-572.93401 299.89058,-511.04944 298.09375,-433.28125 C 296.29692,-355.51306 291.96889,-261.82319 287.09375,-171.4375 C 282.21861,-81.051808 276.79932,6.0288566 272.8125,70.5625 C 270.81909,102.82932 269.18393,129.46897 268.15625,148.0625 C 267.64241,157.35927 267.27331,164.6436 267.09375,169.625 C 267.00397,172.1157 266.96312,174.03577 266.96875,175.34375 C 266.97156,175.99774 267.00105,176.48303 267.03125,176.84375 C 267.04635,177.02411 267.0628,177.18029 267.09375,177.3125 C 267.10922,177.3786 267.11438,177.44809 267.15625,177.53125 C 267.19812,177.61441 267.28348,177.75183 267.53125,177.8125 L 267.78125,176.84375 C 268.00189,176.89778 268.04444,177.02663 268.0625,177.0625 C 268.05222,177.01144 268.04291,176.92056 268.03125,176.78125 C 268.00536,176.47202 267.97151,175.9843 267.96875,175.34375 C 267.96324,174.06265 268.00421,172.1403 268.09375,169.65625 C 268.27283,164.68815 268.64257,157.41887 269.15625,148.125 C 270.18361,129.53727 271.81911,102.8916 273.8125,70.625 C 277.79929,6.0918001 283.21832,-80.983977 288.09375,-171.375 C 292.96918,-261.76602 297.29649,-355.46328 299.09375,-433.25 C 300.89101,-511.03672 300.18064,-572.85205 294.90625,-599.6875 z " style="opacity:0.25;fill:none;fill-opacity:0;fill-rule:evenodd;stroke:black;stroke-width:1px;stroke-linecap:butt;stroke-linejoin:miter;stroke-opacity:1"/>
    <path style="opacity:0.2;fill:none;fill-opacity:0;fill-rule:evenodd;stroke:black;stroke-width:1px;stroke-linecap:butt;stroke-linejoin:miter;stroke-opacity:1" d="M 296.90625,-599.6875 L 295.9375,-599.5 C 301.15893,-572.93401 301.89058,-511.04944 300.09375,-433.28125 C 298.29692,-355.51306 293.96889,-261.82319 289.09375,-171.4375 C 284.21861,-81.051808 278.79932,6.0288566 274.8125,70.5625 C 272.81909,102.82932 271.18393,129.46897 270.15625,148.0625 C 269.64241,157.35927 269.27331,164.6436 269.09375,169.625 C 269.00397,172.1157 268.96312,174.03577 268.96875,175.34375 C 268.97156,175.99774 269.00105,176.48303 269.03125,176.84375 C 269.04635,177.02411 269.0628,177.18029 269.09375,177.3125 C 269.10922,177.3786 269.11438,177.44809 269.15625,177.53125 C 269.19812,177.61441 269.28348,177.75183 269.53125,177.8125 L 269.78125,176.84375 C 270.00189,176.89778 270.04444,177.02663 270.0625,177.0625 C 270.05222,177.01144 270.04291,176.92056 270.03125,176.78125 C 270.00536,176.47202 269.97151,175.9843 269.96875,175.34375 C 269.96324,174.06265 270.00421,172.1403 270.09375,169.65625 C 270.27283,164.68815 270.64257,157.41887 271.15625,148.125 C 272.18361,129.53727 273.81911,102.8916 275.8125,70.625 C 279.79929,6.0918001 285.21832,-80.983977 290.09375,-171.375 C 294.96918,-261.76602 299.29649,-355.46328 301.09375,-433.25 C 302.89101,-511.03672 302.18064,-572.85205 296.90625,-599.6875 z " id="path15668"/>
    <path id="path15670" d="M 298.90625,-599.6875 L 297.9375,-599.5 C 303.15893,-572.93401 303.89058,-511.04944 302.09375,-433.28125 C 300.29692,-355.51306 295.96889,-261.82319 291.09375,-171.4375 C 286.21861,-81.051808 280.79932,6.0288566 276.8125,70.5625 C 274.81909,102.82932 273.18393,129.46897 272.15625,148.0625 C 271.64241,157.35927 271.27331,164.6436 271.09375,169.625 C 271.00397,172.1157 270.96312,174.03577 270.96875,175.34375 C 270.97156,175.99774 271.00105,176.48303 271.03125,176.84375 C 271.04635,177.02411 271.0628,177.18029 271.09375,177.3125 C 271.10922,177.3786 271.11438,177.44809 271.15625,177.53125 C 271.19812,177.61441 271.28348,177.75183 271.53125,177.8125 L 271.78125,176.84375 C 272.00189,176.89778 272.04444,177.02663 272.0625,177.0625 C 272.05222,177.01144 272.04291,176.92056 272.03125,176.78125 C 272.00536,176.47202 271.97151,175.9843 271.96875,175.34375 C 271.96324,174.06265 272.00421,172.1403 272.09375,169.65625 C 272.27283,164.68815 272.64257,157.41887 273.15625,148.125 C 274.18361,129.53727 275.81911,102.8916 277.8125,70.625 C 281.79929,6.0918001 287.21832,-80.983977 292.09375,-171.375 C 296.96918,-261.76602 301.29649,-355.46328 303.09375,-433.25 C 304.89101,-511.03672 304.18064,-572.85205 298.90625,-599.6875 z " style="opacity:0.15;fill:none;fill-opacity:0;fill-rule:evenodd;stroke:black;stroke-width:1px;stroke-linecap:butt;stroke-linejoin:miter;stroke-opacity:1"/>
    <path style="opacity:0.1;fill:none;fill-opacity:0;fill-rule:evenodd;stroke:black;stroke-width:1px;stroke-linecap:butt;stroke-linejoin:miter;stroke-opacity:1" d="M 300.90625,-599.6875 L 299.9375,-599.5 C 305.15893,-572.93401 305.89058,-511.04944 304.09375,-433.28125 C 302.29692,-355.51306 297.96889,-261.82319 293.09375,-171.4375 C 288.21861,-81.051808 282.79932,6.0288566 278.8125,70.5625 C 276.81909,102.82932 275.18393,129.46897 274.15625,148.0625 C 273.64241,157.35927 273.27331,164.6436 273.09375,169.625 C 273.00397,172.1157 272.96312,174.03577 272.96875,175.34375 C 272.97156,175.99774 273.00105,176.48303 273.03125,176.84375 C 273.04635,177.02411 273.0628,177.18029 273.09375,177.3125 C 273.10922,177.3786 273.11438,177.44809 273.15625,177.53125 C 273.19812,177.61441 273.28348,177.75183 273.53125,177.8125 L 273.78125,176.84375 C 274.00189,176.89778 274.04444,177.02663 274.0625,177.0625 C 274.05222,177.01144 274.04291,176.92056 274.03125,176.78125 C 274.00536,176.47202 273.97151,175.9843 273.96875,175.34375 C 273.96324,174.06265 274.00421,172.1403 274.09375,169.65625 C 274.27283,164.68815 274.64257,157.41887 275.15625,148.125 C 276.18361,129.53727 277.81911,102.8916 279.8125,70.625 C 283.79929,6.0918001 289.21832,-80.983977 294.09375,-171.375 C 298.96918,-261.76602 303.29649,-355.46328 305.09375,-433.25 C 306.89101,-511.03672 306.18064,-572.85205 300.90625,-599.6875 z " id="path15672"/>
    <path id="path15676" d="M 302.90625,-599.6875 L 301.9375,-599.5 C 307.15893,-572.93401 307.89058,-511.04944 306.09375,-433.28125 C 304.29692,-355.51306 299.96889,-261.82319 295.09375,-171.4375 C 290.21861,-81.051808 284.79932,6.0288566 280.8125,70.5625 C 278.81909,102.82932 277.18393,129.46897 276.15625,148.0625 C 275.64241,157.35927 275.27331,164.6436 275.09375,169.625 C 275.00397,172.1157 274.96312,174.03577 274.96875,175.34375 C 274.97156,175.99774 275.00105,176.48303 275.03125,176.84375 C 275.04635,177.02411 275.0628,177.18029 275.09375,177.3125 C 275.10922,177.3786 275.11438,177.44809 275.15625,177.53125 C 275.19812,177.61441 275.28348,177.75183 275.53125,177.8125 L 275.78125,176.84375 C 276.00189,176.89778 276.04444,177.02663 276.0625,177.0625 C 276.05222,177.01144 276.04291,176.92056 276.03125,176.78125 C 276.00536,176.47202 275.97151,175.9843 275.96875,175.34375 C 275.96324,174.06265 276.00421,172.1403 276.09375,169.65625 C 276.27283,164.68815 276.64257,157.41887 277.15625,148.125 C 278.18361,129.53727 279.81911,102.8916 281.8125,70.625 C 285.79929,6.0918001 291.21832,-80.983977 296.09375,-171.375 C 300.96918,-261.76602 305.29649,-355.46328 307.09375,-433.25 C 308.89101,-511.03672 308.18064,-572.85205 302.90625,-599.6875 z " style="opacity:0.05;fill:none;fill-opacity:0;fill-rule:evenodd;stroke:black;stroke-width:1px;stroke-linecap:butt;stroke-linejoin:miter;stroke-opacity:1"/>
  </g>
</svg>