<?xml version="1.0" encoding="UTF-8" standalone="no"?>
<!-- Generator: Adobe Illustrator 19.2.1, SVG Export Plug-In . SVG Version: 6.00 Build 0)  -->

<svg
   xmlns:dc="http://purl.org/dc/elements/1.1/"
   xmlns:cc="http://creativecommons.org/ns#"
   xmlns:rdf="http://www.w3.org/1999/02/22-rdf-syntax-ns#"
   xmlns:svg="http://www.w3.org/2000/svg"
   xmlns="http://www.w3.org/2000/svg"
   xmlns:xlink="http://www.w3.org/1999/xlink"
   xmlns:sodipodi="http://sodipodi.sourceforge.net/DTD/sodipodi-0.dtd"
   xmlns:inkscape="http://www.inkscape.org/namespaces/inkscape"
   version="1.1"
   id="Layer_1"
   x="0px"
   y="0px"
   viewBox="0 0 256 256"
   style="enable-background:new 0 0 256 256;"
   xml:space="preserve"
   sodipodi:docname="mu-logo-nocap.svg"
   inkscape:version="0.92.1 r15371"><metadata
     id="metadata35"><rdf:RDF><cc:Work
         rdf:about=""><dc:format>image/svg+xml</dc:format><dc:type
           rdf:resource="http://purl.org/dc/dcmitype/StillImage" /><dc:title></dc:title></cc:Work></rdf:RDF></metadata><defs
     id="defs33" /><sodipodi:namedview
     pagecolor="#ffffff"
     bordercolor="#666666"
     borderopacity="1"
     objecttolerance="10"
     gridtolerance="10"
     guidetolerance="10"
     inkscape:pageopacity="0"
     inkscape:pageshadow="2"
     inkscape:window-width="1606"
     inkscape:window-height="991"
     id="namedview31"
     showgrid="false"
     inkscape:zoom="0.921875"
     inkscape:cx="130.16949"
     inkscape:cy="128"
     inkscape:window-x="0"
     inkscape:window-y="0"
     inkscape:window-maximized="0"
     inkscape:current-layer="Layer_1" /><style
     type="text/css"
     id="style2">
	.st0{clip-path:url(#SVGID_2_);}
	.st1{fill:#C93827;}
	.st2{fill:#346E9A;}
	.st3{fill:#FBBE4D;}
	.st4{fill:#FFFFFF;}
</style><g
     id="g28"><defs
       id="defs5"><circle
         id="SVGID_1_"
         cx="127.7"
         cy="127.7"
         r="123.9" /></defs><use
       xlink:href="#SVGID_1_"
       style="overflow:visible;"
       id="use7" /><clipPath
       id="SVGID_2_"><use
         xlink:href="#SVGID_1_"
         style="overflow:visible;"
         id="use9" /></clipPath><g
       class="st0"
       clip-path="url(#SVGID_2_)"
       id="g26"><path
         class="st1"
         d="M117.9,127.7h91v-25.4c0-19.2-5.1-29.5-33.2-34.5c-9.5-1.7-20.4-2.6-31.8-2.7c-11.3,0-47.8,0.9-59.2,2.7    c-18,3-33.2,16.5-33.2,34.5v63.3c0,6.3-4.3,347.5-5.6,372l74.4-22.4l-2.4-379.1V127.7z M167.4,98.2c0-7,5.6-12.7,12.5-12.7    c6.9,0,12.5,5.7,12.5,12.7c0,7-6.6,9.7-12.5,12.6C173.8,113.9,167.4,105.1,167.4,98.2z"
         id="path12" /><path
         class="st4"
         d="M195.7,97.8c0,8.6-7,15.6-15.5,15.6c-8.6,0-15.5-7-15.5-15.6c0-8.6,7-15.5,15.5-15.5    C188.7,82.3,195.7,89.3,195.7,97.8z"
         id="path18" /></g></g></svg>