<?xml version="1.0" encoding="utf-8"?>
<!-- Generator: Adobe Illustrator 19.2.1, SVG Export Plug-In . SVG Version: 6.00 Build 0)  -->
<svg version="1.1" id="Layer_1" xmlns="http://www.w3.org/2000/svg" xmlns:xlink="http://www.w3.org/1999/xlink" x="0px" y="0px"
	 viewBox="0 0 256 256" style="enable-background:new 0 0 256 256;" xml:space="preserve">
<style type="text/css">
	.st0{clip-path:url(#SVGID_2_);}
	.st1{fill:#C93827;}
	.st2{fill:#346E9A;}
	.st3{fill:#FBBE4D;}
	.st4{fill:#FFFFFF;}
</style>
<g>
	<defs>
		<circle id="SVGID_1_" cx="127.7" cy="127.7" r="123.9"/>
	</defs>
	<use xlink:href="#SVGID_1_"  style="overflow:visible;"/>
	<clipPath id="SVGID_2_">
		<use xlink:href="#SVGID_1_"  style="overflow:visible;"/>
	</clipPath>
	<g class="st0">
		<path class="st1" d="M117.9,127.7h91v-25.4c0-19.2-5.1-29.5-33.2-34.5c-9.5-1.7-20.4-2.6-31.8-2.7c-11.3,0-47.8,0.9-59.2,2.7
			c-18,3-33.2,16.5-33.2,34.5v63.3c0,6.3-4.3,347.5-5.6,372l74.4-22.4l-2.4-379.1V127.7z M167.4,98.2c0-7,5.6-12.7,12.5-12.7
			c6.9,0,12.5,5.7,12.5,12.7c0,7-6.6,9.7-12.5,12.6C173.8,113.9,167.4,105.1,167.4,98.2z"/>
		<path class="st2" d="M133.1,65.7c-8.3-12.3-22.4-20.4-38.3-20.4c-25.5,0-46.2,20.7-46.2,46.2c0,5.5,1,10.8,2.7,15.7
			C84,104.8,113,89.2,133.1,65.7z"/>
		<path class="st3" d="M106.6,77.8c-9.9-14.6-23.5-24-35.3-25.8c-5.9,11.7-2.8,31,9,48.2c0.2,0.3,0.5,0.6,0.7,1
			c10.9-3.7,21.1-9,30.3-15.5C109.9,83,108.4,80.4,106.6,77.8z"/>
		<path class="st4" d="M195.7,97.8c0,8.6-7,15.6-15.5,15.6c-8.6,0-15.5-7-15.5-15.6c0-8.6,7-15.5,15.5-15.5
			C188.7,82.3,195.7,89.3,195.7,97.8z"/>
		<path class="st2" d="M105.5,19.3c4.7,7.6-11.7,17.9-34.1,31.7S29,77.1,24.1,69.2c-2.4-3.9,23.2-6.4,45.6-20.2
			S103.1,15.4,105.5,19.3z"/>
		<path class="st3" d="M105.5,19.3c-2.3-3.8-12.6,14.7-33.6,28.4c0.4,0.7,0.8,1.5,1.2,2.3C94.6,36.7,110,26.7,105.5,19.3z"/>
		<circle class="st1" cx="70.8" cy="51" r="4.7"/>
	</g>
</g>
</svg>
