<?xml version="1.0" encoding="UTF-8"?>
<svg width="251px" height="251px" viewBox="0 0 251 251" version="1.1" xmlns="http://www.w3.org/2000/svg" xmlns:xlink="http://www.w3.org/1999/xlink">
    <!-- Generator: Sketch 49.3 (51167) - http://www.bohemiancoding.com/sketch -->
    <title>Carlos</title>
    <desc>Created with Sketch.</desc>
    <defs></defs>
    <g id="Page-1" stroke="none" stroke-width="1" fill="none" fill-rule="evenodd">
        <g id="Carlos" transform="translate(7.000000, 7.000000)">
            <g id="Group-2" stroke-width="1">
                <g id="Group">
                    <g id="Group-3">
                        <g id="snake-copy">
                            <path d="M93.97,138.35 L92.76,134.19" id="Shape" fill="#FFC303" fill-rule="nonzero"></path>
                            <path d="M172.83,59.45 L157.7,61.62" id="Shape" fill="#DEB900" fill-rule="nonzero"></path>
                            <path d="M129.89,234.780508 L128.53,103.180508 L128.53,97.2605085 L174.53,97.2605085 L174.53,79.8005085 C174.53,66.5205085 171.05,59.3205085 151.59,55.8805085 C144.340521,54.6538326 137.002488,54.0250495 129.65,54.0005085 C121.612414,53.9795214 113.586281,54.6082352 105.65,55.8805085 C93.13,57.9605085 82.53,67.3405085 82.53,79.8005085 L82.53,123.580508 C82.53,125.710508 82.35,176.990508 82,230.930508 L129.89,234.780508 Z M154.53,68.1105085 C158.088412,68.0536993 161.328338,70.152961 162.730561,73.4239389 C164.132783,76.6949169 163.41924,80.4889751 160.924516,83.0270604 C158.429792,85.5651456 154.648592,86.3439548 151.353939,84.9983002 C148.059286,83.6526457 145.904511,80.4493712 145.9,76.8905085 C145.866687,72.0861507 149.725781,68.1599804 154.53,68.1105085 Z" id="Shape" fill="#E4B293" fill-rule="nonzero"></path>
                            <path d="M174.53,89.262509 L174.53,97.2605085 L128.53,97.2605085 L128.53,99.4373003 C123.168524,94.7548141 118.569344,87.8979379 114.732459,78.8666719 C116.006518,77.3890643 118.262885,76.9161294 121.50156,77.4478671 C125.698954,78.1370109 146.91958,89.8185436 174.53,89.262509 Z" id="Combined-Shape" fill-opacity="0.27" fill="#908B88" style="mix-blend-mode: multiply;"></path>
                            <circle id="Oval" stroke="#000000" stroke-width="15" cx="118.37" cy="118.37" r="117.87"></circle>
                        </g>
                    </g>
                </g>
                <path d="M70.3878487,45.6151089 C70.5348309,45.4242857 70.5429966,45.2872727 70.583825,45.1516164 C70.6573161,44.7853443 70.7553042,44.4290203 70.9022865,44.1011841 C71.0084403,43.7760611 71.1880852,43.4758084 71.3187361,43.2275573 C71.4412213,42.978854 71.6208663,42.7758216 71.7106887,42.6379044 C71.8086769,42.5008914 71.8658366,42.4222108 71.8658366,42.4222108 C71.8658366,42.4222108 71.9148307,42.5031524 72.0046532,42.6451394 C72.0944757,42.7857698 72.1842981,42.9815671 72.3802744,43.2099219 C72.5599194,43.4382768 72.74773,43.6973804 73.0253631,43.9632668 C73.1968424,44.1527335 73.4009844,44.341748 73.6214577,44.5280494 C73.7684399,43.7236073 74.0542387,42.8734942 74.4951854,42.0441818 C75.1811025,40.756803 76.2263095,39.5264 77.4266643,38.7599417 C77.7206288,38.5695706 78.0227589,38.4081395 78.3085577,38.2819791 C78.6025222,38.1558187 78.8719896,38.0644768 79.1006286,38.0007183 C79.5660723,37.8745579 79.8600368,37.862801 79.8518711,37.8546617 C79.8600368,37.8618967 79.5987351,37.9337945 79.2721079,38.130044 C78.5943565,38.5442481 78.2677293,39.0828038 78.0554217,39.6200029 C77.9166051,39.9785878 78.1125814,40.8874853 77.7777886,41.1316667 C78.1860725,40.8327706 78.5616938,40.5289004 79.0108061,40.2575877 C79.2394452,40.1165051 79.4435872,39.9740659 79.6722262,39.8415749 C79.9090309,39.7122492 80.1376699,39.5851844 80.3663089,39.4599284 C80.823587,39.213486 81.3216934,38.9996012 81.7708058,38.8015429 C82.1300957,38.6708607 82.4567229,38.5361087 82.78335,38.4253227 C82.938498,38.3398592 83.0936459,38.2543957 83.2569595,38.1698366 C84.4001546,37.5987234 85.6413379,37.0502195 86.9805093,36.5686395 C87.2989708,36.4555926 87.6174323,36.3452587 87.9440595,36.2367337 C88.1563671,36.2453252 88.3605091,36.2502993 88.5728168,36.2493949 C100.176247,36.218194 111.657193,35.1153079 123.244292,35 C125.971629,35.5335816 128.666303,36.1155473 131.328314,36.7350446 C131.916243,36.8182472 132.512338,36.9055194 133.100267,37.0018354 C147.692336,39.4002396 150.403341,45.810454 170.025469,51.7173835 C171.274818,52.3698905 172.516001,53.0233019 173.757185,53.6825917 C173.724522,53.8467359 176.000933,54.9875945 175.96827,55.1657565 C175.935608,55.3439185 176.918328,61.3055738 170.058132,63.0532797 C171.209493,62.7100692 171.977067,62.2090451 172.311859,61.5063452 C172.507836,61.1052546 172.564995,60.6281965 172.516001,60.1122502 C172.491504,59.7156815 172.409848,59.2901728 172.222037,58.9058131 C172.360853,59.1870739 170.842037,60.1208418 170.51541,60.3216132 C170.000972,60.6309096 169.413043,60.8836826 168.77612,61.0984718 C168.17186,61.6605413 167.428783,62.1950273 166.555055,62.6919817 C166.775529,62.2411504 167.044996,61.7794667 167.298132,61.308287 C167.118487,61.3765673 167.012333,61.4452999 166.914345,61.5095105 C165.379198,62.4916625 163.215293,63.3218793 161.02689,63.8034593 C162.676358,63.4082472 164.03186,62.3116917 165.060736,61.2074491 C164.227837,61.7527876 163.313281,62.2818473 162.317068,62.7204695 L162.063932,62.827638 C158.699672,64.1688271 154.322868,64.6006664 150.411507,65.5308168 C150.411507,64.7616453 152.493755,64.3772857 151.799673,63.6081142 C148.321093,65.1464571 144.850679,66.6843479 139.9921,66.6843479 C142.074348,65.5308168 143.462514,63.992926 144.156597,62.4545831 C141.380266,63.6081142 138.603935,65.1464571 135.133521,66.2999882 C135.827604,65.1464571 137.215769,64.3772857 137.909852,63.2237545 C135.827604,64.7616453 120.051273,65.5308168 116.572693,65.1464571 C120.051273,67.8383312 116.572693,70.1453934 116.572693,72.8372675 C117.266776,72.8372675 118.663107,72.8372675 119.35719,72.8372675 C121.439438,73.9907986 119.35719,76.2978608 122.133521,77.4513919 C119.626657,78.0071307 117.111628,78.7609278 114.604764,79.1380524 C113.486066,77.0050825 112.661333,74.7260559 110.219795,72.9173047 C108.513168,71.6475613 105.908316,70.7097238 103.066659,70.8471889 C99.3676067,70.7576557 97.3506838,71.7945224 96.4851218,73.2451409 C81.9910408,73.5634811 80.9134095,70.9792277 67.7584999,67.5073297 C67.6686774,67.4367884 67.5788549,67.370769 67.4971981,67.2984189 C62.0833527,62.6413366 60.2705718,56.5657412 63.8634708,51.3307629 C65.308796,49.2285417 67.0725828,47.0128214 70.3878487,45.6151089 Z" id="Fill-21" fill="#331915"></path>
                <path d="M101,86.0380303 C98.931082,87.7298494 95.4152309,87.9066572 92.5213646,87.5496523 C92.5213646,88.5105152 92.5213646,89.4708132 92.5213646,90.4316761 C91.4083391,89.9515271 90.8518263,88.9906642 89.7388008,88.9906642 C86.1902136,89.3307227 86.0663143,91.3792612 82.5308215,91.3018725 C81.5683818,87.372559 77.8505799,83.2176704 73.6145358,77.2858531 C69.7451354,71.8748562 70.4469347,71.9102455 68.2578575,67.9885647 C68.2578575,67.9885647 67.5507589,67.9885647 67.7275336,67.331043 C67.9043082,66.6735213 84.8414886,73.0875642 96.4562371,73.1677774 C95.6312888,75.3227991 96.1026878,78.2082122 97.1502412,80.3321654 C98.053756,82.1668995 99.3304618,84.2835093 101,86.0380303 Z" id="Fill-23" fill="#5D4037"></path>
            </g>
            <path d="M81.5603915,116 C88.1236029,125.2937 106.607432,131.976508 128.86022,131.976508 C129.241028,131.976508 129.62097,131.97455 130,131.970657 L130,233 L81,233 L81,116 L81.5603915,116 Z" id="Combined-Shape" fill="#000000"></path>
            <g id="happy" stroke-width="1" transform="translate(116.000000, 142.000000)">
                <g id="Easy" transform="translate(13.500000, 15.000000) scale(-1, 1) translate(-13.500000, -15.000000) translate(0.000000, 6.000000)" fill="#EE0000" fill-rule="nonzero">
                    <g id="Face" transform="translate(13.436171, 8.601954) scale(-1, 1) rotate(-8.000000) translate(-13.436171, -8.601954) translate(1.436171, 1.601954)">
                        <path d="M6.51506956,5.24217128 C5.74879572,5.24217128 5.12821488,5.86096727 5.12821488,6.62336666 C5.12821488,7.38576605 5.74879572,8.00456204 6.51506956,8.00456204 C7.27975977,8.00456204 7.90034062,7.38576605 7.90034062,6.62336666 C7.90034062,5.86096727 7.27975977,5.24217128 6.51506956,5.24217128" id="Fill-24"></path>
                        <path d="M16.7896515,10.3460257 L6.46405722,10.344053 C4.4298981,10.3105193 2.79104999,8.65809518 2.79104999,6.62318914 C2.79104999,4.56737374 4.46315412,2.90074715 6.52641223,2.90074715 L16.7896515,2.90074715 C18.8521178,2.90074715 20.5248158,4.56737374 20.5248158,6.62318914 C20.5248158,8.67939893 18.8521178,10.3460257 16.7896515,10.3460257 M16.8423069,0.133819295 L16.8423069,0.132241346 L6.47098555,0.132241346 L6.47098555,0.133819295 C2.77798514,0.161829953 0.000118771454,2.94651072 0.000118771454,6.63541905 C0.000118771454,10.2789582 2.73047656,13.0360231 6.37497863,13.1107836 L6.37497863,13.1141369 L16.7896515,13.1141369 C20.5107612,13.1141369 23.3169347,10.329456 23.3169347,6.63541905 C23.3169347,2.94572175 20.5370888,0.160251824 16.8423069,0.133819295" id="Fill-25"></path>
                        <path d="M16.7838515,8.00456204 C17.5501254,8.00456204 18.1697164,7.38576605 18.1697164,6.62336666 C18.1697164,5.86096727 17.5501254,5.24217128 16.7838515,5.24217128 C16.0183695,5.24217128 15.3975907,5.86096727 15.3975907,6.62336666 C15.3975907,7.38576605 16.0183695,8.00456204 16.7838515,8.00456204" id="Fill-26"></path>
                    </g>
                </g>
                <rect id="Rectangle" fill="#FFFFFF" x="14" y="0" width="22" height="56"></rect>
            </g>
        </g>
    </g>
</svg>