<?xml version="1.0" encoding="UTF-8"?>
<svg width="251px" height="251px" viewBox="0 0 251 251" version="1.1" xmlns="http://www.w3.org/2000/svg" xmlns:xlink="http://www.w3.org/1999/xlink">
    <!-- Generator: Sketch 49.3 (51167) - http://www.bohemiancoding.com/sketch -->
    <title>Daniel Pope</title>
    <desc>Created with Sketch.</desc>
    <defs></defs>
    <g id="Page-1" stroke="none" stroke-width="1" fill="none" fill-rule="evenodd">
        <g id="Daniel-Pope" transform="translate(7.000000, 7.000000)">
            <g id="Group">
                <g id="snake">
                    <path d="M93.97,138.35 L92.76,134.19" id="Shape" fill="#FFC303" fill-rule="nonzero"></path>
                    <path d="M172.83,59.45 L157.7,61.62" id="Shape" fill="#DEB900" fill-rule="nonzero"></path>
                    <path d="M129.73,234.89 L128.37,103.29 L128.37,97.37 L174.37,97.37 L174.37,79.91 C174.37,66.63 170.89,59.43 151.43,55.99 C144.180521,54.7633242 136.842488,54.134541 129.49,54.11 C121.452414,54.0890129 113.426281,54.7177267 105.49,55.99 C92.97,58.07 82.37,67.45 82.37,79.91 L82.37,123.69 C82.37,125.82 82.19,177.1 81.84,231.04 L129.73,234.89 Z M154.37,68.22 C157.928412,68.1631909 161.168338,70.2624525 162.570561,73.5334305 C163.972783,76.8044084 163.25924,80.5984666 160.764516,83.1365519 C158.269792,85.6746372 154.488592,86.4534463 151.193939,85.1077918 C147.899286,83.7621372 145.744511,80.5588627 145.74,77 C145.706687,72.1956422 149.565781,68.269472 154.37,68.22 Z" id="Shape" fill="#FFDCB7" fill-rule="nonzero"></path>
                    <path d="M81.3814178,118 C87.8838624,127.279665 106.968763,134 129.5,134 C129.666857,134 129.833525,133.999631 130,133.998896 L130,232 L81,232 L81,118 L81.3814178,118 Z" id="Combined-Shape" fill="#7D1A2D"></path>
                    <ellipse id="Oval" fill="#FFDCB7" fill-rule="nonzero" cx="92.73" cy="81.82" rx="10.89" ry="9.5"></ellipse>
                    <path d="M155.3,56.78 C152.406481,60.6189882 150.420116,65.063522 149.49,69.78 C150.91633,68.7681144 152.621195,68.2231168 154.37,68.22 C159.213537,68.22 163.14,72.1464627 163.14,76.99 C163.14,81.8335373 159.213537,85.76 154.37,85.76 C152.594431,85.7600127 150.863433,85.2039952 149.42,84.17 C150.318992,88.9536998 152.299417,93.4686571 155.21,97.37 L174.37,97.37 L174.37,79.91 C174.37,67.57 171.37,60.48 155.3,56.78 Z" id="Shape" fill="#FFDCB7" fill-rule="nonzero"></path>
                    <circle id="Oval" stroke="#000000" stroke-width="15" cx="118.37" cy="118.37" r="117.87"></circle>
                </g>
                <path d="M176.386401,84.2407067 C177.154574,85.1435617 177.494102,86.1960188 177.125944,87.0561304 C177.052554,87.2271042 176.854966,87.329124 176.804561,87.5158243 C176.5356,88.5158602 172.194718,87.4928396 170.715633,88.4795685 C168.200624,89.8763929 167.921178,93.5095878 168.759918,96.582682 C169.038557,97.1411698 171.274121,97.1411698 171.832609,96.582682 C172.950391,95.7443455 172.098344,92.610362 171.819302,91.2127312 C172.937084,91.2127312 174.477058,91.1478095 174.815377,91.1034531 C174.594401,91.3865277 174.548835,91.7873486 174.625854,92.2728499 C175.280716,93.0486842 176.223492,92.9962629 177.029973,93.7043529 C178.118721,94.6604356 178.812295,96.2967846 178.991333,97.7113515 C179.157065,99.0113982 178.904234,99.9707068 178.376795,100.630811 C178.317922,101.075585 178.179611,101.53044 177.819114,101.862307 L177.738466,101.927229 C177.606203,102.388536 177.339258,102.784114 176.892468,103.087754 C173.671788,105.273317 170.290618,103.763182 166.777992,103.763182 C166.264264,103.021623 165.803763,102.215545 165.406168,101.332853 C164.848084,100.215474 164.567832,98.8178429 164.28879,97.4210185 C162.916966,89.4630716 166.348541,82.6156484 176.386401,84.2407067" id="Fill-40" fill="#000000"></path>
                <path d="M137.465415,58.1317866 C139.140618,58.0777786 145.688113,57.827378 146.383108,56.999851 C150.01309,52.6743037 135.064216,44.3671786 109.113227,46.2820066 C100.105912,46.9425999 94.4939033,49.801299 90.6610032,51.6938097 C84.2972617,54.8360915 78.9301459,58.4920401 78.1804757,64.3168665 C77.3913492,70.3827201 79.5276274,81.5810645 78.1804757,87.5219411 C77.070062,92.4406833 84.3186304,96.0860091 80.2433558,99.848713 C76.833202,102.999922 84.5467204,107.765712 93.7287708,106.993532 C111.326292,98.8878729 106.487127,86.0623869 109.113227,87.5219411 C107.179868,85.263426 105.539612,83.0227649 105.539612,80.1527546 C105.533975,79.1306204 106.390741,76.7783725 106.971313,76.1936581 C108.927219,74.2341954 112.094998,75.068864 114.535654,77.0952787 C116.751408,78.9369058 117.999919,81.2266651 119.084404,84.2511114 C120.727478,84.1792495 122.372244,84.151576 124.017572,84.1622884 C122.76117,79.6332069 120.818228,75.3973753 124.506831,70.2036834 C125.75816,68.5477366 121.998536,67.5568466 121.581426,65.9008998 C120.330097,62.9237663 121.581426,59.2860395 124.089721,58.6254462 C128.380314,57.4957423 133.047998,58.2741712 137.465415,58.1317866 Z" id="Fill-83" fill="#000000"></path>
                <path d="M117.5,70 C118.284067,70 119.03571,69.9893211 119.731689,69.969751 C122.22225,69.8997193 124,69.7158295 124,69.5 C124,69.2238576 121.089851,69 117.5,69 C113.910149,69 111,69.2238576 111,69.5 C111,69.7761424 113.910149,70 117.5,70 Z" id="Oval-2" fill="#D8D8D8"></path>
                <path d="M116.5,72 C117.284067,72 118.03571,71.9893211 118.731689,71.969751 C121.22225,71.8997193 123,71.7158295 123,71.5 C123,71.2238576 120.089851,71 116.5,71 C112.910149,71 110,71.2238576 110,71.5 C110,71.7761424 112.910149,72 116.5,72 Z" id="Oval-2-Copy" fill="#D8D8D8"></path>
                <path d="M115.5,74 C116.284067,74 117.03571,73.9893211 117.731689,73.969751 C120.22225,73.8997193 122,73.7158295 122,73.5 C122,73.2238576 119.089851,73 115.5,73 C111.910149,73 109,73.2238576 109,73.5 C109,73.7761424 111.910149,74 115.5,74 Z" id="Oval-2-Copy-2" fill="#D8D8D8"></path>
                <path d="M117,76 C117.482503,76 117.945052,75.9893211 118.373347,75.969751 C119.906,75.8997193 121,75.7158295 121,75.5 C121,75.2238576 119.209139,75 117,75 C114.790861,75 113,75.2238576 113,75.5 C113,75.7761424 114.790861,76 117,76 Z" id="Oval-2-Copy-3" fill="#D8D8D8"></path>
                <polygon id="Rectangle" fill="#7D1A2D" transform="translate(93.139751, 39.503038) rotate(-21.000000) translate(-93.139751, -39.503038) " points="76.7015567 23.0648434 109.577946 23.0648434 115.900328 55.9412323 70.3791742 55.9412323"></polygon>
            </g>
        </g>
    </g>
</svg>