<?xml version="1.0" encoding="UTF-8"?>
<svg width="251px" height="251px" viewBox="0 0 251 251" version="1.1" xmlns="http://www.w3.org/2000/svg" xmlns:xlink="http://www.w3.org/1999/xlink">
    <!-- Generator: Sketch 49.3 (51167) - http://www.bohemiancoding.com/sketch -->
    <title>Stig</title>
    <desc>Created with Sketch.</desc>
    <defs>
        <linearGradient x1="94.4482512%" y1="66.4933281%" x2="-11.7057506%" y2="50%" id="linearGradient-1">
            <stop stop-color="#3023AE" offset="0%"></stop>
            <stop stop-color="#53A0FD" offset="47.5247532%"></stop>
            <stop stop-color="#CD16F4" offset="100%"></stop>
        </linearGradient>
    </defs>
    <g id="Page-1" stroke="none" stroke-width="1" fill="none" fill-rule="evenodd">
        <g id="Stig" transform="translate(7.000000, 7.000000)">
            <g id="Group">
                <g id="Base" transform="translate(82.000000, 54.000000)" fill="#FFDCB7" fill-rule="nonzero">
                    <path d="M47.89,180.780508 L46.53,49.1805085 L46.53,43.2605085 L92.53,43.2605085 L92.53,25.8005085 C92.53,12.5205085 89.05,5.32050848 69.59,1.88050848 C62.3405212,0.653832643 55.0024876,0.0250494567 47.65,0.000508480725 C39.6124139,-0.0204786121 31.5862807,0.608235152 23.65,1.88050848 C11.13,3.96050848 0.53,13.3405085 0.53,25.8005085 L0.53,69.5805085 C0.53,71.7105085 0.35,122.990508 0,176.930508 L47.89,180.780508 Z M72.53,14.1105085 C76.0884121,14.0536993 79.3283383,16.152961 80.7305606,19.4239389 C82.1327829,22.6949169 81.4192402,26.4889751 78.9245163,29.0270604 C76.4297924,31.5651456 72.6485919,32.3439548 69.353939,30.9983002 C66.059286,29.6526457 63.9045114,26.4493712 63.9,22.8905085 C63.866687,18.0861507 67.7257815,14.1599804 72.53,14.1105085 Z" id="Shape"></path>
                </g>
                <path d="M80.4659223,113.758895 L135.992662,131.705547 C132.369177,137.297901 130.536471,141.465377 130.494544,144.207975 C130.452617,146.950572 131.287769,175.881247 133,231 L79,231 C81.4636172,168.340521 82.6954258,135.24237 82.6954258,131.705547 C82.6954258,128.168724 81.9522579,122.186506 80.4659223,113.758895 Z" id="Rectangle-2" fill="#F0F0F0"></path>
                <g id="helmet" transform="translate(126.339244, 89.215896) rotate(-17.000000) translate(-126.339244, -89.215896) translate(74.839244, 29.715896)">
                    <path d="M20.8968127,47.0734034 L45.6242196,83.6626538 C45.9254421,84.1083741 46.0023202,84.2914813 46.051501,84.5078271 C46.1006818,84.7241729 46.0975757,84.9373719 46.0421134,85.1521931 C45.986651,85.3670144 45.9044715,85.5478043 45.5903924,85.9845605 L35.0250813,100.676608 C34.8643742,100.900086 34.7388058,101.037438 34.5984972,101.147961 C34.4581886,101.258485 34.3079419,101.335501 34.1362943,101.384887 C33.9646466,101.434273 33.7798229,101.456028 33.5045608,101.456028 L33.4381719,101.456028 C32.8328261,101.456028 32.3030341,101.049237 32.1467294,100.464419 L18.2048728,48.3006159 C17.9909668,47.5002811 18.4663612,46.6780765 19.266696,46.4641705 C19.8843779,46.2990822 20.5388114,46.5436674 20.8968127,47.0734034 Z" id="Rectangle-Copy" fill="#000000" transform="translate(32.119912, 73.934617) rotate(-43.000000) translate(-32.119912, -73.934617) "></path>
                    <path d="M1.22089225,61.0857986 C-3.66019988,59 5.56266554,-8.84755288e-14 38.5441101,0 C71.5255547,7.88215561e-14 78.7850223,10.4849622 89.7542123,22.536124 C96.0324521,29.4336327 104.124143,44.2810661 102.870231,51.3571681 C100.609841,64.1130527 97.0469846,84.9459218 97.7280153,86.9626029 C101.609892,98.4576916 81.4858361,100.756626 76.2140076,118 C74.7654644,122.737971 32.2998858,74.3665399 1.22089225,61.0857986 Z" id="Path-2" stroke="#979797" fill="#F3F3F3"></path>
                    <circle id="Oval-3" fill-opacity="0.1" fill="#130808" cx="49.9070557" cy="66.1586389" r="1.5"></circle>
                    <rect id="Rectangle" fill-opacity="0.1" fill="#000000" transform="translate(72.000000, 98.000000) rotate(-34.000000) translate(-72.000000, -98.000000) " x="71" y="86" width="2" height="24" rx="1"></rect>
                    <path d="M103,50.7505384 C78.1496681,38.2501795 64.3671644,32 61.652489,32 C57.5804759,32 49.2200434,38.3982412 57.5804759,50.7505384 C63.1540976,58.9854032 76.517563,71.1554679 97.6708721,87.2607324 L103,50.7505384 Z" id="Path-3" fill="url(#linearGradient-1)"></path>
                </g>
                <circle id="Oval" stroke="#000000" stroke-width="15" cx="118.37" cy="118.37" r="117.87"></circle>
            </g>
        </g>
    </g>
</svg>