<?xml version="1.0" encoding="UTF-8"?>
<svg width="251px" height="251px" viewBox="0 0 251 251" version="1.1" xmlns="http://www.w3.org/2000/svg" xmlns:xlink="http://www.w3.org/1999/xlink">
    <!-- Generator: Sketch 49.3 (51167) - http://www.bohemiancoding.com/sketch -->
    <title>Tim Golden</title>
    <desc>Created with Sketch.</desc>
    <defs>
        <linearGradient x1="9.09517631%" y1="39.1278276%" x2="9.09517623%" y2="100%" id="linearGradient-1">
            <stop stop-color="#D8D0B8" offset="0%"></stop>
            <stop stop-color="#D6D3D5" offset="100%"></stop>
        </linearGradient>
    </defs>
    <g id="Page-1" stroke="none" stroke-width="1" fill="none" fill-rule="evenodd">
        <g id="Tim-Golden" transform="translate(7.000000, 7.000000)">
            <g id="Group-2">
                <g id="Group" transform="translate(82.000000, 54.000000)" fill-rule="nonzero">
                    <g id="Base">
                        <path d="M47.89,180.780508 L46.53,49.1805085 L46.53,43.2605085 L92.53,43.2605085 L92.53,25.8005085 C92.53,12.5205085 89.05,5.32050848 69.59,1.88050848 C62.3405212,0.653832643 55.0024876,0.0250494567 47.65,0.000508480725 C39.6124139,-0.0204786121 31.5862807,0.608235152 23.65,1.88050848 C11.13,3.96050848 0.53,13.3405085 0.53,25.8005085 L0.53,69.5805085 C0.53,71.7105085 0.35,122.990508 0,176.930508 L47.89,180.780508 Z M72.53,14.1105085 C76.0884121,14.0536993 79.3283383,16.152961 80.7305606,19.4239389 C82.1327829,22.6949169 81.4192402,26.4889751 78.9245163,29.0270604 C76.4297924,31.5651456 72.6485919,32.3439548 69.353939,30.9983002 C66.059286,29.6526457 63.9045114,26.4493712 63.9,22.8905085 C63.866687,18.0861507 67.7257815,14.1599804 72.53,14.1105085 Z" id="Shape" fill="#FFDCB7"></path>
                        <polygon id="Shape-Copy" fill="#B2BCF8" transform="translate(26.944570, 83.525000) scale(-1, 1) translate(-26.944570, -83.525000) " points="3 77.6411608 46.207324 97.05 50.8891404 82.3611001 6.42732398 70"></polygon>
                    </g>
                </g>
                <path d="M81.5603915,116 C88.1236029,125.2937 106.607432,131.976508 128.86022,131.976508 C129.241028,131.976508 129.62097,131.97455 130,131.970657 L130,233 L81,233 L81,116 L81.5603915,116 Z" id="Combined-Shape" fill="#263A5E"></path>
                <path d="M139.5,69.5 L110.5,69.5" id="Line" stroke="#919191" stroke-linecap="square"></path>
                <path d="M162.15,63.6612776 C162.15,65.7399086 160.328675,65.0076636 152.736625,65.0076636 C145.144576,65.0076636 139,69.9759066 139,67.8972756 C139,65.8186446 145.154161,61 152.736625,61 C160.319089,61 162.15,61.5826466 162.15,63.6612776 Z" id="Shape" fill="#D8D0B8" fill-rule="nonzero" transform="translate(150.575000, 64.702789) rotate(6.000000) translate(-150.575000, -64.702789) "></path>
                <path d="M164.037839,69.5 L172.5,69.5" id="Line-2" stroke="#919191" stroke-linecap="square"></path>
                <polygon id="Path-2" fill="#848FD4" points="126.773498 124.454184 128.879202 131.937377 121.692004 132.718024"></polygon>
                <path d="M145.863892,67.5098059 C145.228583,67.4923551 144.593435,67.5499692 143.971635,67.6814519 C139.608475,68.6040647 136.81936,72.8890301 137.741973,77.2521901 L138.084804,78.8734835 C138.657236,81.580592 139.172707,82.8884134 140.070548,84.1245256 C140.8819,85.2415627 141.917215,86.0808483 143.177939,86.6435538 C144.573055,87.2662431 145.959224,87.5 148.726193,87.5 L154.920238,87.5 C157.716923,87.5 159.01917,87.2999636 160.368456,86.7398243 C161.579774,86.2369613 162.58919,85.4815598 163.41326,84.4612313 C164.331191,83.3246871 164.890371,82.1317168 165.6791,79.4485548 L166.195837,77.6906774 C166.382219,77.0566258 166.485773,76.4011217 166.50392,75.7404927 C166.620093,71.511115 163.285682,67.9883501 159.056304,67.8721769 L145.863892,67.5098059 Z" id="Rectangle" stroke="#919191"></path>
                <polygon id="Shape" fill="#B2BCF8" fill-rule="nonzero" points="79 119.641161 122.207324 139.05 126.88914 124.3611 82.427324 112"></polygon>
                <path d="M133.875466,55.7229366 C127.64565,55.3116836 122.831536,54.1660597 117.761373,55.7229366 C114.401232,57.0662911 109.777241,60.7603946 110.196499,64.7899727 C110.196499,66.1333272 113.562716,67.4766817 113.562716,68.4840762 C112.298866,73.1850887 111.401232,69.8717978 113.922857,73.9018613 C112.239749,74.2373358 110.562716,74.9092558 108.46035,74.5732958 C108.46035,73.9018613 108.46035,72.8939813 108.041092,72.2220613 C106.777241,71.2151523 108.938725,76.2077578 108.519467,75.2003632 C108.519467,68.3966894 100.775473,68.5256224 97.0249821,70.6798374 C93.2744907,72.8340523 93.4079481,79.4814258 98.1230823,83.164363 C98.2263778,83.2430126 98.3296733,83.3231187 98.4329687,83.3988553 C93.6503645,84.3137235 91.8987233,86.0270799 89.6444516,87.3131464 C84.8989364,90.8135389 87.9690284,97.7655419 81.6193954,96.6794978 C81.309509,96.418789 79.244317,90.7132677 78.9648116,90.4676091 C78.5637821,85.9287506 80.5118366,87.358111 78.5917562,83.5105922 C76.8357332,79.9907801 79.9552328,78.9158284 78.9648116,75.2003632 C78.1323717,72.0485535 75.1993361,68.8507597 76.7062347,65.7348763 C78.2556667,62.5291771 76.0519029,62.1134634 78.5917562,59.3398514 C80.6090558,57.1294094 78.3625501,57.4903101 81.6193954,56.6115708 C84.8762406,55.7328315 79.0761441,59.2772542 83.4388585,56.2808017 C87.8015728,53.2843492 89.5106073,52.8032273 89.8508747,52.7847787 C90.30659,52.4196892 90.7623053,52.4376524 91.9350126,51.9691532 C93.2049393,51.4627858 94.0130744,50.945252 95.5928874,50.6029806 C100.581451,49.5217914 104.865174,48.7799607 110.133243,49.0591182 C114.477729,49.2897266 118.767529,50.8564071 122.467937,52.6066033 C123.312529,53.0061627 124.491313,53.6533227 125.554649,54.4364202 C126.660518,55.032118 130.663091,46.7448193 131.240331,47.2808017 C133.439916,49.3324881 137.557645,43.6827516 137.88576,46.4029595 C138.055894,47.7608788 138.116656,49.2173528 137.478655,50.5165276 C136.92572,51.6355851 137.393588,51.2845749 137.296369,52.4929628 C137.22953,53.3275224 137.290292,54.074208 137.478655,54.7558379 C137.083701,54.9393536 136.719129,55.2107432 136.391014,55.618556 C136.388792,55.6381956 133.877715,55.7033262 133.875466,55.7229366 Z" id="Combined-Shape" fill="url(#linearGradient-1)"></path>
                <circle id="Oval" stroke="#000000" stroke-width="15" cx="118.37" cy="118.37" r="117.87"></circle>
            </g>
        </g>
    </g>
</svg>